<?xml version="1.0" encoding="UTF-8" standalone="no"?>
<!-- Created with Inkscape (http://www.inkscape.org/) -->

<svg
   width="330.72916mm"
   height="330.72955mm"
   viewBox="0 0 330.72916 330.72955"
   version="1.1"
   id="svg1"
   xmlns:inkscape="http://www.inkscape.org/namespaces/inkscape"
   xmlns:sodipodi="http://sodipodi.sourceforge.net/DTD/sodipodi-0.dtd"
   xmlns="http://www.w3.org/2000/svg"
   xmlns:svg="http://www.w3.org/2000/svg">
  <sodipodi:namedview
     id="namedview1"
     pagecolor="#ffffff"
     bordercolor="#000000"
     borderopacity="0.25"
     inkscape:showpageshadow="2"
     inkscape:pageopacity="0.0"
     inkscape:pagecheckerboard="0"
     inkscape:deskcolor="#d1d1d1"
     inkscape:document-units="mm" />
  <defs
     id="defs1" />
  <g
     inkscape:label="Layer 1"
     inkscape:groupmode="layer"
     id="layer1"
     transform="translate(60.325002,16.93333)">
    <path
       stroke="#c0c0c0"
       fill="#c0c0c0"
       d="m 104.63963,313.63077 c -0.40196,-0.0878 -0.80126,-0.25004 -1.20322,-0.25538 -2.57149,-0.0372 -5.153621,0.0825 -7.714454,-0.0824 -3.364762,-0.21551 -6.724195,-0.58794 -10.072984,-1.00299 -3.692181,-0.45757 -7.395015,-0.90448 -11.044608,-1.60946 -4.197959,-0.80875 -8.345345,-1.88087 -12.506037,-2.86514 -8.414559,-1.98994 -16.456443,-5.05992 -24.351913,-8.52102 -7.930076,-3.47704 -15.572655,-7.53133 -22.757373,-12.35982 -5.0285072,-3.37857 -9.92391,-6.98064 -14.66225614,-10.75031 -3.78003056,-3.00882 -7.29652036,-6.3608 -10.82100086,-9.67555 -6.181145,-5.81546 -11.789962,-12.15499 -16.704002,-19.07445 -3.532463,-4.9748 -7.027662,-9.99215 -10.206083,-15.19307 -4.267171,-6.98063 -7.946046,-14.29918 -10.775746,-21.99547 -2.092325,-5.69573 -4.272497,-11.3888 -5.877679,-17.23085 -1.724972,-6.27568 -2.968122,-12.69767 -4.152709,-19.10637 -0.995585,-5.38979 -1.701012,-10.83811 -1.65576,-16.3556 0.01598,-2.15486 -0.207635,-4.31238 -0.236916,-6.46989 -0.04259,-3.24824 -0.191664,-6.50712 0.02928,-9.7394 0.364694,-5.37915 0.763993,-10.77427 1.557266,-16.10022 0.974289,-6.55235 2.161538,-13.0914 3.654917,-19.54266 1.008894,-4.36558 2.619399,-8.600795 4.110115,-12.841336 2.603431,-7.408971 5.757894,-14.586497 9.418132,-21.53789 4.682445,-8.898752 10.022403,-17.382492 16.403198,-25.169227 3.282235,-4.00377 6.718871,-7.885171 10.171475,-11.745285 C -8.8065126,27.748181 -1.9492192,22.089691 5.0837656,16.617427 12.558642,10.801984 20.56325,5.8378386 28.943208,1.490888 c 8.438515,-4.3762136 17.215106,-7.9729594 26.297823,-10.8301339 7.522795,-2.3676821 15.170698,-4.2059571 22.938388,-5.4642861 4.879436,-0.79011 9.825419,-1.229063 14.758091,-1.636091 3.298211,-0.271352 6.620375,-0.250069 9.93456,-0.284653 3.96104,-0.04256 7.93274,-0.17026 11.88313,0.04789 4.15271,0.228787 8.29743,0.723606 12.42086,1.290252 4.24321,0.582607 8.47845,1.271627 12.67375,2.12027 11.01798,2.229339 21.62869,5.7649004 31.92527,10.2634891 6.64168,2.90239976 13.04909,6.249072 19.2409,10.0134162 7.7384,4.7034367 15.11211,9.9123287 21.86824,15.9512367 3.7002,3.30943 7.45628,6.586934 10.90091,10.151756 9.17054,9.491998 17.18845,19.872541 23.82745,31.319869 3.83064,6.602896 7.40302,13.325509 10.13156,20.441848 2.40644,6.275681 4.67976,12.62585 6.55651,19.074449 1.66108,5.71702 2.85898,11.58567 3.94771,17.44367 0.75071,4.03836 1.07813,8.16982 1.38422,12.27468 0.31946,4.30173 0.45522,8.62208 0.54573,12.93977 0.0852,4.04634 0.17566,8.10597 -0.0453,12.14433 -0.21029,3.84149 -0.74797,7.66968 -1.26976,11.48724 -0.5457,3.9878 -1.18457,7.96763 -1.90328,11.92884 -0.43661,2.40226 -0.97168,4.80719 -1.70103,7.13497 -2.20417,7.02854 -4.31509,14.09966 -6.87861,21.00051 -1.76223,4.74866 -4.18733,9.25257 -6.36482,13.84164 -1.10471,2.33039 -2.1695,4.69811 -3.51652,6.88752 -2.45433,3.98783 -4.96195,7.95968 -7.70909,11.74793 -3.42601,4.73006 -7.09689,9.28717 -10.7039,13.88688 -0.92636,1.17851 -1.99382,2.24793 -3.01869,3.34665 -3.48189,3.72974 -6.97709,7.44358 -10.9275,10.69978 -4.19796,3.45842 -8.2069,7.18018 -12.6125,10.34862 -5.48106,3.93991 -11.16706,7.63241 -16.98086,11.06956 -7.81294,4.61827 -16.05714,8.43849 -24.64207,11.38616 -6.15985,2.11492 -12.46078,3.83349 -18.75107,5.53873 -3.62031,0.97899 -7.32847,1.64409 -11.02331,2.32249 -2.32392,0.42564 -4.69576,0.5693 -7.03565,0.92046 -6.38612,0.95774 -12.81217,1.16789 -19.25419,1.07477 -0.1331,0 -0.2662,0.16228 -0.40196,0.25006 h -0.7986 z M 171.40507,34.281907 c 3.89449,2.615089 7.69315,5.00937 11.32145,7.640423 5.94157,4.309703 11.57699,9.005158 16.60553,14.378991 2.28928,2.45015 4.54665,4.932222 6.72952,7.47814 5.44113,6.344846 10.13685,13.211117 14.18042,20.526976 4.97525,9.002503 8.97358,18.406713 11.63289,28.356283 0.22629,0.84864 0.65754,1.12797 1.53064,0.8912 4.568,-1.2397 9.14662,-2.43684 13.7093,-3.70315 0.25022,-0.0692 0.56698,-0.67573 0.50311,-0.95505 -0.28485,-1.27961 -0.68681,-2.53262 -1.0568,-3.79361 -3.03469,-10.35394 -7.30983,-20.175821 -12.65248,-29.542782 -0.29813,-0.52142 -0.63622,-1.021556 -0.95565,-1.532337 0.52176,-0.3086 1.04349,-0.622517 1.56792,-0.925793 2.4384,-1.401985 4.88476,-2.790664 7.31779,-4.200634 1.92464,-1.114671 3.8386,-2.250627 5.86174,-3.442446 C 232.91307,40.366043 213.09457,20.53607 187.92273,5.7207843 182.37247,15.311211 176.87812,24.811195 171.40241,34.276587 Z M -11.449872,265.07205 c 21.0883047,20.66801 45.49612,34.7544 73.473661,42.38945 2.869631,-10.74232 5.688679,-21.29314 8.544994,-31.99027 -2.068367,-0.67836 -4.040902,-1.36207 -6.034736,-1.96865 -8.382611,-2.55387 -16.296716,-6.16924 -23.941963,-10.41509 -0.553693,-0.30596 -1.118034,-0.59325 -1.674389,-0.89122 0.319437,-0.5959 0.622903,-1.20513 0.963639,-1.78774 1.38956,-2.38096 2.808401,-4.74599 4.181991,-7.13758 1.080767,-1.88087 2.110959,-3.79363 3.165107,-5.69841 -0.236916,-0.20487 -0.362027,-0.32989 -0.503113,-0.42828 -4.82087,-3.4079 -9.721601,-6.71199 -14.438651,-10.2555 -2.595444,-1.95006 -4.895403,-4.29646 -7.315158,-6.4779 -0.479158,-0.431 -0.758666,-0.84865 -1.466757,-0.12237 -3.974354,4.08094 -8.015261,8.10062 -12.042854,12.12834 -4.7543167,4.75399 -9.5086384,9.508 -14.2842511,14.24065 -2.8137299,2.78805 -5.6700419,5.53347 -8.6275199,8.41457 z m 233.281062,-0.21016 c 1.76228,-1.81165 3.27691,-3.21365 4.61063,-4.76993 3.08255,-3.59405 6.14119,-7.21474 9.09597,-10.91528 5.33464,-6.68269 10.00112,-13.83097 13.99143,-21.38091 2.88828,-5.46164 5.69934,-10.99508 8.02593,-16.70944 2.48362,-6.09478 4.363,-12.43431 6.48462,-18.6754 0.24222,-0.7103 0.0799,-1.25035 -0.8359,-1.43923 -1.36824,-0.28465 -2.70457,-0.71828 -4.06217,-1.0588 -3.60432,-0.89653 -7.22464,-1.73187 -10.81569,-2.6816 -2.25468,-0.59591 -4.45884,-1.38868 -6.70553,-2.01918 -3.66029,-1.02954 -7.33649,-2.00854 -11.01002,-2.98753 -4.30446,-1.1466 -8.62222,-2.24264 -12.91865,-3.4185 -1.76491,-0.48418 -1.79951,-0.47886 -2.31064,1.17319 -0.95564,3.08331 -1.76755,6.23844 -3.03463,9.19405 -2.10299,4.90296 -4.49879,9.68088 -6.81205,14.49339 -0.80925,1.68397 -0.87315,1.67333 0.74272,2.60178 4.38427,2.51932 8.77654,5.02533 13.19548,7.55529 -0.73205,1.15724 -1.52268,2.40759 -2.31595,3.6606 -4.0036,6.32888 -8.37729,12.38109 -13.39781,17.94914 -1.3869,1.54032 -2.83237,3.02744 -4.25919,4.53048 -0.68948,0.72631 -1.04084,1.24505 -0.0293,2.18414 3.72947,3.46642 7.35778,7.04721 10.97273,10.63329 1.52003,1.50572 2.90689,3.14447 4.37366,4.70342 2.26534,2.40228 4.552,4.78592 7.01435,7.37436 z M -21.874233,182.64226 c 2.406441,6.37145 4.541359,12.62052 7.126155,18.67806 1.799505,4.21394 4.229904,8.15652 6.3302171,12.24542 0.1224545,0.23943 -0.066545,0.88323 -0.2954787,1.01624 -1.5838884,0.91249 -3.2396484,1.69462 -4.8261954,2.59913 -3.364757,1.92074 -6.702899,3.89204 -9.950527,5.7835 -6.388785,-11.21054 -11.446571,-23.08618 -14.867231,-35.68276 -0.33541,0 -0.609595,-0.0559 -0.854498,0.008 -4.693092,1.23704 -9.383525,2.48474 -14.071296,3.74306 -0.686792,0.18357 -0.819893,0.59591 -0.585636,1.3009 1.506685,4.56509 2.853655,9.18606 4.472146,13.70859 2.566162,7.17752 5.723286,14.10498 9.463386,20.75578 0.740034,1.31685 1.64511,2.54322 2.387804,3.86011 0.811911,1.4392 1.37093,3.0381 2.307947,4.38422 3.753411,5.40306 7.440274,10.8674 11.481181,16.05236 3.425981,4.39478 7.320478,8.42253 10.970069,12.64708 0.779963,0.90186 1.272434,0.6917 2.009804,-0.0532 4.0808382,-4.13411 8.2069227,-8.22571 12.3143751,-12.33059 3.8385935,-3.83611 7.6798487,-7.67501 11.5184449,-11.51115 3.292882,-3.29081 6.575121,-6.59495 9.883976,-9.86978 0.535064,-0.52938 0.710753,-0.91781 0.09849,-1.52437 -4.895403,-4.84709 -9.181211,-10.19698 -13.027792,-15.90601 -1.5199973,-2.25595 -3.1704337,-4.43741 -4.5280478,-6.78646 -1.3043773,-2.26127 -2.2626929,-4.7194 -3.4526035,-7.0525 -2.95747274,-5.7915 -5.3133386,-11.81444 -7.0436315,-18.07682 -0.6229112,-2.25329 -0.5643483,-2.26659 -2.8643024,-1.68132 -0.1703705,0.0426 -0.3540496,0.0372 -0.5244121,0.0825 -4.3470357,1.16256 -8.6940707,2.32777 -13.4723477,3.60739 z M 105.43557,296.83091 c 0,5.11046 0.0293,10.02406 -0.024,14.93769 -0.0106,1.06942 0.32476,1.41259 1.37358,1.34874 4.79159,-0.28996 9.60181,-0.38841 14.37743,-0.83799 4.79158,-0.45228 9.60181,-0.98165 14.31087,-1.94204 6.2131,-1.26632 12.41021,-2.74013 18.47955,-4.57308 8.24685,-2.49005 16.2701,-5.63716 23.9606,-9.56117 3.11453,-1.58819 6.20776,-3.21898 9.36223,-4.85773 -8.45715,-14.62643 -16.79185,-29.04262 -24.95619,-43.16624 -5.79782,2.58316 -11.27354,5.14504 -16.85041,7.46483 -3.41799,1.42062 -6.93981,2.65766 -10.50954,3.63934 -3.48988,0.96033 -7.07292,1.71056 -10.66395,2.15749 -5.78983,0.72094 -11.61693,1.15456 -17.43871,1.61748 -1.05948,0.0851 -1.48007,0.28199 -1.44813,1.42324 0.0772,2.79072 0.024,5.58401 0.024,8.37735 0,2.11494 0,4.22987 0,6.54703 11.64622,-0.11705 22.97034,-1.47912 34.01495,-4.70344 0.44721,1.69727 0.88111,3.41852 1.35229,5.12908 1.05148,3.80426 2.13225,7.60317 3.1518,11.41542 0.0559,0.20749 -0.31944,0.66776 -0.59097,0.78478 -0.34073,0.14634 -0.80126,-0.008 -1.17926,0.0878 -6.02409,1.57226 -12.09609,2.88113 -18.30918,3.42913 -5.2042,0.4576 -10.41372,0.86995 -15.62058,1.27431 -0.87579,0.0692 -1.75957,0.0106 -2.81905,0.0106 z M 66.386794,5.5186003 c -6.279639,1.558947 -12.362291,3.7217834 -18.325155,6.2118357 -6.005457,2.50867 -11.872491,5.312642 -17.505267,8.829577 -0.2662,-0.641136 -0.452538,-1.266309 -0.769315,-1.816995 C 27.436519,14.635497 25.04871,10.549256 22.700832,6.4390725 22.352111,5.8298562 22.05663,5.7394083 21.455021,6.1171751 19.485147,7.3542194 17.438071,8.4742139 15.500144,9.7591417 7.6446015,14.978675 0.11648609,20.626521 -6.7727452,27.088421 c -1.4987032,1.404644 -2.9787718,2.833235 -4.2884728,4.078261 11.88313352,11.875638 23.651803,23.639544 35.476373,35.453992 0.393975,-0.3618 0.958321,-0.909826 1.55194,-1.423266 3.33548,-2.875798 6.524548,-5.945798 10.054352,-8.560887 4.453511,-3.301449 8.962924,-6.581616 14.010065,-8.975894 4.626544,-2.194764 9.213157,-4.482632 13.927548,-6.469885 3.210361,-1.354098 6.601738,-2.279888 9.923904,-3.359976 0.668158,-0.218146 1.120701,-0.433631 0.894432,-1.266306 -1.504029,-5.533454 -2.98676,-11.074887 -4.482798,-16.610999 -1.28574,-4.759299 -2.58213,-9.518597 -3.913127,-14.4321963 z M 62.729216,307.70092 c 2.180172,0.49485 4.410924,1.08808 6.676278,1.50046 5.885665,1.07476 11.758021,2.32775 17.691603,3.02212 5.371902,0.62783 10.821001,0.58793 16.232823,0.8912 1.07013,0.0585 1.36295,-0.29533 1.3523,-1.3461 -0.0532,-4.8764 -0.0293,-9.75273 -0.0293,-14.6291 0,-0.33785 0.0373,-0.67837 0.0452,-0.80608 13.07571,-0.0426 25.79471,-1.67598 38.32737,-5.03328 -1.46143,-5.43239 -2.84034,-10.56677 -4.23523,-15.74911 -11.27087,3.04607 -22.5524,4.39754 -34.12408,4.38687 v -33.59441 c -2.51558,-0.18624 -4.908716,-0.4097 -7.309833,-0.53472 -5.443773,-0.28466 -10.778408,-1.25304 -16.049154,-2.57257 -1.019543,-0.25535 -1.338982,0.0665 -1.56259,0.94443 -0.524412,2.07243 -1.091419,4.13414 -1.650437,6.19588 -0.992923,3.65792 -2.017791,7.31054 -2.986754,10.97381 -1.573239,5.94045 -3.087912,11.89691 -4.671798,17.83741 -1.527985,5.72498 -3.117191,11.43132 -4.666467,17.14833 -1.011563,3.7351 -1.99916,7.47816 -3.037334,11.36486 z M 264.51893,190.51147 c 7.36573,-28.74469 7.33644,-57.27921 -0.42064,-85.79777 -3.6762,-13.519707 -9.02946,-26.334438 -15.99586,-38.48675 -4.72773,2.73214 -9.32233,5.387136 -14.0367,8.111294 6.54317,11.489896 11.43326,23.511851 14.85128,36.161636 -0.81458,0.14366 -1.4668,0.21017 -2.09506,0.37511 -4.40555,1.15192 -8.80049,2.35704 -13.2194,3.4584 -0.90244,0.22347 -1.06481,0.59592 -0.87048,1.37805 0.39129,1.57224 0.86249,3.13119 1.12065,4.72471 0.88381,5.45099 1.81554,10.89665 2.47837,16.3769 0.42056,3.49032 0.39661,7.03652 0.57762,10.55611 0.008,0.16228 0.0905,0.32191 0.12779,0.4496 0.14909,0.0399 0.23159,0.0798 0.31681,0.0798 5.26005,-0.0639 10.52282,-0.141 15.78295,-0.15962 0.23958,0 0.70274,0.5161 0.6894,0.76883 -0.27681,4.95882 -0.55898,9.91765 -0.95298,14.86849 -0.21825,2.75342 -0.49778,5.51749 -0.99822,8.23101 -0.85984,4.64491 -1.93262,9.24991 -2.85633,13.88418 -0.0559,0.28465 0.32475,0.89652 0.60695,0.97633 4.85281,1.3541 9.72159,2.64967 14.89385,4.04102 z M 104.66359,-16.543375 c -29.297896,0.09045 -56.35705,7.5340063 -81.630007,21.7507195 0.103817,0.3272155 0.122452,0.4602374 0.186338,0.5693066 2.345219,4.0516606 4.738349,8.0740519 7.017012,12.1629519 0.564343,1.013582 0.862489,1.484453 2.13492,0.814057 4.296458,-2.258608 8.635505,-4.450702 13.038439,-6.493822 6.282304,-2.9130442 12.836131,-5.1157824 19.491113,-7.0205662 0.686792,-0.1968659 1.360279,-0.4389517 2.041747,-0.6624214 0.204973,0.7342478 0.423254,1.468493 0.617583,2.2053999 1.030189,3.9186437 2.060379,7.8399437 3.079922,11.7639047 0.649528,2.503353 0.64154,2.506014 3.228996,1.793052 0.167711,-0.04522 0.346059,-0.06118 0.51643,-0.09843 5.339953,-1.194477 10.677252,-2.373 16.168947,-2.684258 5.132316,-0.289971 10.25932,-0.915147 15.38898,-0.92845 4.64251,-0.01064 9.30366,0.481521 13.9302,0.981657 4.2166,0.457576 8.40924,1.165217 12.59123,1.878182 2.11894,0.361805 4.1953,0.978998 6.36216,1.497759 1.34963,-5.097164 2.63271,-10.034701 3.985,-14.9562803 0.22893,-0.830019 -0.14641,-0.8246983 -0.72672,-0.9843161 C 134.26761,2.8715923 126.27897,1.6212482 118.22112,0.85507572 113.77293,0.4320837 109.28481,0.40016173 104.66625,0.18201277 V -16.546035 Z M 5.7998419,90.582118 c 0.1330986,-0.202184 0.2315897,-0.348501 0.3300862,-0.497478 2.2254262,-3.317409 4.2804849,-6.770497 6.7215309,-9.920308 3.143813,-4.056978 6.559147,-7.909113 9.953191,-11.766566 0.713414,-0.808736 0.734713,-1.183838 0,-1.910106 C 18.556108,62.300327 14.350162,58.073087 10.130904,53.856496 6.236407,49.967114 2.3419124,46.075074 -1.5499232,42.183038 c -3.1038826,-3.104587 -6.2290589,-6.187893 -9.2956718,-9.329719 -0.734711,-0.752867 -1.208546,-0.806072 -1.919301,-0.008 -1.993831,2.232004 -4.160692,4.317688 -6.045383,6.634819 -4.152709,5.107802 -8.340023,10.199645 -12.189264,15.530914 -2.832362,3.9213 -5.284057,8.135234 -7.658555,12.359815 -2.268016,4.038354 -4.323074,8.207065 -6.282303,12.405037 -3.665564,7.861228 -6.625699,15.988485 -8.907029,24.365816 -0.28217,1.03486 0,1.27162 0.918387,1.50573 4.368332,1.11467 8.736664,2.23733 13.065064,3.50098 1.195234,0.3485 1.543955,0.0372 1.85541,-1.01625 0.931695,-3.14449 1.855406,-6.2943 2.938838,-9.388242 2.422414,-6.908834 5.419817,-13.570256 8.797882,-20.064084 0.913069,-1.755801 1.895343,-3.477024 2.760488,-5.059913 9.745559,5.637205 19.4698142,11.263765 29.3112029,16.956837 z m -0.580316,0.646456 C 4.5114348,90.821545 3.9044992,90.473043 3.2975662,90.127207 -1.2012024,87.549361 -5.70263,84.976841 -10.19607,82.391015 c -4.003638,-2.306489 -8.023246,-4.589042 -11.978968,-6.975343 -0.91839,-0.553344 -1.240488,-0.388408 -1.716987,0.454914 -5.7712,10.247524 -10.227376,21.037754 -13.429752,32.346744 -0.22361,0.79012 -0.399299,1.59619 -0.598946,2.39429 -0.819898,-0.24741 -1.631804,-0.51876 -2.457024,-0.73691 -4.245877,-1.12797 -8.502403,-2.21604 -12.734972,-3.38392 -0.915726,-0.25273 -1.272431,-0.0612 -1.461434,0.85131 -0.867809,4.16338 -1.876705,8.29751 -2.654006,12.47686 -1.610506,8.63804 -2.555513,17.34524 -2.390468,26.14822 0.0346,1.91011 0.0053,1.91011 1.996493,1.91277 5.433126,0 10.866254,0 16.299383,0 4.389625,0 8.781912,-0.008 13.171538,0.005 0.777303,0 1.315027,-0.0213 1.365607,-1.08807 0.186335,-3.8681 0.290155,-7.75481 0.790609,-11.58567 0.748017,-5.74628 1.788859,-11.45531 2.741851,-17.17232 0.250227,-1.49244 0.638879,-2.96359 0.974291,-4.49593 0.915723,0.3086 1.727631,0.63316 2.566162,0.85928 4.032919,1.08541 8.073821,2.14155 12.1094022,3.21366 1.8820262,0.50014 1.7143227,0.44427 2.3771595,-1.40465 1.9698705,-5.49088 3.9823389,-10.97113 6.18114547,-16.374221 C 2.1422631,96.921643 3.7447808,94.173538 5.2221877,91.228572 Z M 204.30463,205.98917 c -10.31788,17.51551 -24.14959,31.2427 -41.48183,41.49293 3.13583,5.45362 6.17849,10.76894 9.23978,16.07095 2.87761,4.98277 5.78185,9.95222 8.66478,14.93234 2.12428,3.66856 4.32042,7.29724 6.30094,11.04297 0.69478,1.31683 1.26445,1.25299 2.26536,0.57195 4.97262,-3.37595 10.00378,-6.66676 14.92046,-10.11716 5.86438,-4.11554 11.16705,-8.91207 16.32069,-13.87888 0.81457,-0.78478 0.76933,-1.25299 -0.0106,-2.02181 -4.33371,-4.26448 -8.61422,-8.58221 -12.91867,-12.87592 -3.3355,-3.32804 -6.67626,-6.65346 -9.86534,-9.82724 3.61767,-4.22987 7.46959,-8.40126 10.9328,-12.87323 3.48723,-4.50125 6.58844,-9.30047 10.01445,-14.19544 -4.94334,-2.85984 -9.58585,-5.54675 -14.38542,-8.32146 z M 135.30845,37.359887 c -0.55103,1.918087 -1.1207,3.735081 -1.5972,5.576023 -0.93968,3.633985 -1.81548,7.283934 -2.77113,10.912604 -0.0719,0.26869 -0.63356,0.651775 -0.87846,0.595908 -2.54487,-0.595908 -5.04181,-1.428586 -7.60531,-1.886164 -3.14382,-0.561325 -6.33821,-0.875239 -9.51929,-1.199799 -2.05772,-0.210163 -4.15537,-0.114392 -6.19712,-0.417666 -1.11804,-0.164943 -1.32035,0.106408 -1.31768,1.085401 0.0213,4.652893 0.0399,9.308441 -0.0133,13.961329 -0.0133,1.088067 0.38599,1.300895 1.39222,1.359419 3.63895,0.215484 7.29919,0.356481 10.89554,0.888547 4.09681,0.603888 8.10577,1.675995 12.06681,2.971567 4.94598,1.617472 9.67368,3.676552 14.21238,6.18789 0.89442,0.494819 1.47208,0.401706 1.92462,-0.508119 0.15439,-0.31392 0.35404,-0.606552 0.52707,-0.909828 2.60876,-4.543814 5.20686,-9.090292 7.8236,-13.628785 2.8297,-4.908278 5.67271,-9.808575 8.51838,-14.706214 1.60784,-2.766724 3.24763,-5.514826 4.85015,-8.286879 0.90774,-1.569577 1.76224,-3.17109 2.67796,-4.825802 -1.04882,-0.526745 -1.898,-0.978998 -2.76581,-1.386025 -5.19355,-2.439508 -10.30457,-5.08386 -15.61525,-7.228072 -4.13141,-1.668018 -8.50773,-2.734803 -12.78821,-4.019733 -2.29463,-0.68902 -4.58927,-1.452533 -6.93715,-1.878182 -4.25387,-0.771488 -8.53701,-1.428591 -12.83081,-1.926063 -4.18199,-0.48418 -8.39592,-0.691685 -12.59388,-1.053486 -1.08077,-0.09311 -1.36561,0.337859 -1.35496,1.370062 0.0479,4.299061 0.016,8.59813 0.024,12.897199 0.005,2.410243 -0.30879,2.184117 2.17751,2.247961 2.60077,0.06651 5.20952,0.117057 7.79166,0.396386 3.4739,0.377767 6.93448,0.896527 10.37911,1.489781 3.21036,0.553342 6.39144,1.284928 9.5246,1.926061 z m 84.80578,110.554643 c -0.0665,0.52674 -0.18103,1.14127 -0.21829,1.75846 -0.19698,3.3387 -0.26087,6.6907 -0.591,10.01609 -0.33541,3.38924 -0.85979,6.76517 -1.42681,10.12781 -0.35669,2.10431 -0.97428,4.16339 -1.41616,6.2544 -0.19968,0.94441 -0.19436,1.64407 1.15798,1.97395 5.27605,1.29025 10.50422,2.77471 15.75099,4.17935 4.60258,1.23172 9.20781,2.45547 13.80778,3.68986 0.67347,0.1809 1.07275,0.0585 1.23248,-0.71829 0.94501,-4.57042 2.02576,-9.11423 2.86163,-13.70594 0.54837,-3.00881 0.85188,-6.07349 1.10207,-9.12487 0.34073,-4.16073 0.51641,-8.33742 0.7933,-12.50347 0.0665,-0.98697 -0.39934,-1.19448 -1.26979,-1.18118 -2.30529,0.0373 -4.61055,0.0106 -6.91586,0.0106 -2.91225,0 -5.82444,0 -8.69408,0 -0.0772,-0.19154 -0.1384,-0.27135 -0.1384,-0.3485 0.12244,-5.7782 -0.14111,-11.54044 -1.11004,-17.23617 -0.87048,-5.11844 -1.93529,-10.20229 -2.91758,-15.30212 -0.16235,-0.838 -0.58563,-0.97367 -1.42682,-0.73956 -5.26275,1.46051 -10.54415,2.84919 -15.81756,4.2698 -4.72239,1.27163 -9.43941,2.57252 -14.17246,3.80425 -0.80391,0.21016 -0.83318,0.54536 -0.6735,1.22374 0.60428,2.59381 1.3603,5.17431 1.68505,7.80536 0.60429,4.87369 0.96899,9.77931 1.37629,14.67695 0.0639,0.77947 0.25286,1.08806 1.0781,1.0854 5.25475,-0.0293 10.51221,-0.0133 15.94268,-0.0133 z M 187.28385,5.2179913 c -2.50493,-1.2875947 -4.86346,-2.447491 -7.17407,-3.6951787 -6.64167,-3.5887633 -13.60544,-6.4406171 -20.71296,-8.9253535 -9.05344,-3.1657711 -18.31717,-5.5653731 -27.8125,-6.9833231 -4.58661,-0.683699 -9.18387,-1.359416 -13.79977,-1.771765 -3.60168,-0.321898 -7.24328,-0.191543 -10.86359,-0.343181 -1.14998,-0.04789 -1.53331,0.266031 -1.51468,1.465834 0.0692,4.519869 0.024,9.0424023 0.0293,13.562274 0,0.383085 0.0506,0.76616986 0.0825,1.22374557 13.09434,-0.0638466 25.84262,1.87286103 38.56695,5.08918093 -0.18368,0.4123452 -0.44722,0.8459761 -0.57233,1.3168524 -1.22186,4.5943631 -2.40644,9.1967001 -3.64161,13.7857391 -0.26354,0.981658 -0.005,1.359424 0.99293,1.662698 3.51116,1.061466 7.08089,2.019181 10.44832,3.442448 5.83508,2.466108 11.55836,5.208889 17.28432,7.92507 2.45169,1.162555 1.77288,1.492438 3.30353,-1.11733 3.00539,-5.118441 5.92293,-10.290093 8.88839,-15.432474 2.12427,-3.684537 4.26451,-7.3584297 6.49792,-11.2079037 z M -9.2217815,213.75994 C -20.825409,193.60275 -26.410268,171.86533 -26.830863,148.78712 h -32.734525 c -0.540385,14.23267 1.788859,28.02107 5.180238,41.74297 5.694002,-1.53766 11.111155,-2.99817 16.533635,-4.46134 0.681471,6.70664 11.563699,32.85486 14.808668,35.68544 4.554669,-2.63637 9.090705,-5.25944 13.8184038,-7.99425 z M 104.65826,33.999914 c 0,-5.224851 -0.0346,-10.356601 0.0266,-15.488345 0.0133,-1.183839 -0.35404,-1.588204 -1.51733,-1.481791 -2.31594,0.212825 -4.639855,0.319233 -6.955787,0.526738 -3.756075,0.340524 -7.538768,0.548026 -11.257568,1.143936 -4.224584,0.675725 -8.393264,1.699943 -12.572596,2.63371 -0.284832,0.06385 -0.692118,0.678381 -0.638879,0.963036 0.212961,1.151914 0.596289,2.271906 0.891768,3.40786 1.102069,4.221919 2.174851,8.454477 3.300873,12.67107 1.538631,5.767562 3.119853,11.521816 4.671798,17.284057 1.011555,3.751043 1.991167,7.510065 3.010713,11.258444 0.279511,1.029544 0.644202,2.035143 0.955656,3.003497 6.255684,-1.694622 12.428844,-2.407584 18.668552,-2.580505 1.0861,-0.02926 1.45878,-0.305935 1.44014,-1.428589 -0.0612,-3.98781 -0.024,-7.975621 -0.024,-11.963429 v -3.913319 c 2.83502,0.271354 5.52896,0.609211 8.23354,0.768829 5.43845,0.319235 10.7864,1.173202 16.04916,2.561883 0.74535,0.196861 1.13134,0.127691 1.34697,-0.704987 0.82787,-3.197691 1.71432,-6.382089 2.5768,-9.571805 0.46053,-1.702602 0.92105,-3.407862 1.40022,-5.17697 -9.77484,-2.673614 -19.54436,-3.801586 -29.60669,-3.91332 z M 64.951983,218.50594 c -8.411901,14.5679 -16.709332,28.93893 -25.06,43.3977 0.543044,0.34851 1.019543,0.73692 1.559925,0.98962 5.797823,2.70023 11.547727,5.51487 17.430732,8.01021 3.410011,1.44457 7.038305,2.37035 10.570771,3.52494 0.646863,0.2128 1.333656,0.42299 1.586547,-0.51078 0.841187,-3.11253 1.658419,-6.23311 2.486297,-9.35101 0.992926,-3.73772 2.017792,-7.46482 2.981434,-11.21058 0.902417,-3.50891 1.780873,-7.02853 2.592782,-10.55879 0.202311,-0.87789 0.580313,-0.82203 1.24315,-0.62783 1.834116,0.53737 3.657579,1.1679 5.534284,1.5004 3.532466,0.62521 7.088889,1.14927 10.653295,1.55901 2.646021,0.30327 5.32132,0.36182 8.0339,0.53205 V 229.33345 C 90.437896,229.15253 77.295639,225.59304 64.951983,218.5086 Z M 185.60946,147.91985 c -0.3221,-16.1747 -4.89807,-30.83037 -13.75452,-44.19845 -6.81736,-10.292746 -15.62856,-18.427985 -26.20466,-24.751548 -0.18367,0.244747 -0.30346,0.372441 -0.38864,0.51876 -2.98144,5.139725 -5.96287,10.279449 -8.93897,15.424494 -2.02312,3.492992 -4.0489,6.983324 -6.05338,10.484294 -1.38423,2.41557 -1.28574,2.30384 1.00092,3.88672 2.51292,1.74251 5.10836,3.49033 7.19802,5.68509 2.45968,2.58316 4.46682,5.60794 6.55383,8.5263 0.57232,0.80076 0.95299,0.7981 1.67439,0.36979 2.79243,-1.6494 5.60349,-3.2642 8.40657,-4.89764 1.78886,-1.04284 3.57772,-2.09101 5.3373,-3.12055 1.15264,2.39428 2.36385,4.66886 3.35411,7.03121 1.24315,2.96625 2.6966,5.92718 3.35411,9.03709 1.02487,4.84709 1.46676,9.81655 2.12694,14.73813 0.0905,0.6837 0.0186,1.2876 1.04083,1.27961 5.00721,-0.0399 10.01708,-0.0186 15.29581,-0.0186 z M -6.1152398,177.53978 c -2.6220578,-9.83518 -3.5750552,-19.77677 -3.9716892,-29.87532 0.9343573,0.0851 1.6770559,0.20751 2.4197545,0.21016 4.3470274,0.016 8.691401,-0.0399 13.0384363,0.0319 1.2537969,0.0212 1.5892066,-0.43895 1.6344609,-1.60683 0.1091406,-2.76939 0.178353,-5.55474 0.5590196,-8.29219 0.6681576,-4.81783 1.5572661,-9.60374 2.3904681,-14.63439 -10.34184009,-2.76672 -20.9072874,-5.59198 -31.4407914,-8.40925 -0.157057,0.26869 -0.252889,0.3751 -0.284835,0.49482 -1.892676,7.0179 -3.090571,14.16882 -3.721465,21.3969 -0.391313,4.49327 -0.596289,9.02644 -0.505777,13.53567 0.08784,4.5252 0.423254,9.07167 1.054147,13.5543 0.769316,5.4696 1.975199,10.87802 2.952152,16.32102 0.194323,1.08275 0.612254,1.3408 1.703673,1.04018 4.607912,-1.27695 9.242436,-2.46345 14.1724462,-3.76168 z M 119.85824,121.94456 c 8.37729,-14.50935 16.704,-28.925598 25.04669,-43.371096 -12.39424,-6.996626 -25.41138,-10.558783 -39.47203,-10.768949 0,0.697005 0,1.178517 0,1.660041 0,5.778195 0,11.556396 0,17.334597 0,5.778198 0,11.56172 0,17.342587 0,4.16605 0.0373,8.3321 -0.024,12.49814 -0.016,1.16788 0.34074,1.52171 1.51202,1.51373 3.22367,-0.0213 6.29827,0.72094 9.21848,2.10164 1.21653,0.57729 2.45169,1.11733 3.7188,1.68931 z m 26.01299,-43.517411 c 0.48182,0.231444 0.72939,0.316574 0.94235,0.46023 4.99922,3.336038 9.93189,6.75986 14.24698,10.979115 0.68946,0.675719 1.24581,0.82736 2.00182,0.06651 4.63453,-4.674174 9.29568,-9.321739 13.95417,-13.971965 3.38605,-3.383915 6.78542,-6.757194 10.16614,-10.146438 1.29906,-1.303551 2.55553,-2.649669 3.85724,-3.950562 1.92728,-1.92341 3.88387,-3.817554 5.81112,-5.740956 0.41526,-0.412347 0.70276,-0.763513 0.0532,-1.396666 -4.58394,-4.474647 -9.41813,-8.654 -14.64362,-12.357156 -3.607,-2.556557 -7.33113,-4.948184 -11.199,-7.547305 -8.45981,14.6397 -16.78919,29.05594 -25.1931,43.605195 z M 84.629429,226.01071 c 4.799574,1.39398 9.623105,2.14154 14.510523,2.48473 2.004478,0.14097 4.027598,0.12237 6.037398,0.0771 3.24231,-0.0719 6.52455,0.0665 9.71095,-0.415 4.2512,-0.64381 8.44384,-1.72127 12.62317,-2.7641 2.28399,-0.56928 4.54934,-1.31419 6.71355,-2.23732 3.25561,-1.38868 6.41806,-2.99551 9.61511,-4.51987 0.90241,-0.43097 0.95832,-0.93643 0.40463,-1.8303 -1.52533,-2.45546 -2.90956,-4.99873 -4.35768,-7.50208 -1.02754,-1.77443 -2.06571,-3.54088 -2.99741,-5.13174 -5.24146,2.19209 -10.3445,4.32566 -15.47949,6.4752 -1.5546,-5.77022 -3.032,-11.25579 -4.4961,-16.69347 -8.01526,2.12559 -15.78562,2.13357 -23.681091,0 -2.850992,10.61997 -5.701985,21.24792 -8.60356,32.05945 z M 203.8787,205.76836 c -4.67976,-2.71618 -9.10664,-5.302 -13.56817,-7.82398 -0.22627,-0.12769 -0.93434,0.19155 -1.14198,0.49482 -1.34698,1.95267 -2.53954,4.01176 -3.92644,5.9325 -4.24056,5.87131 -8.76861,11.5032 -14.29757,16.24919 -1.70634,1.46318 -3.3062,3.06469 -5.11635,4.38424 -4.50675,3.29079 -8.91501,6.74651 -13.99676,9.16739 -3.47922,1.65738 -6.89988,3.46377 -10.45364,4.94287 -3.37274,1.402 -6.88924,2.4661 -10.43235,3.70848 0.0506,0.36446 0.0692,0.75816 0.16505,1.13064 1.11271,4.27245 2.23607,8.53959 3.36475,12.80941 0.4552,1.71591 0.52175,1.73985 2.23076,1.23442 0.71341,-0.21021 1.44013,-0.37246 2.14822,-0.59857 8.46514,-2.67899 16.52033,-6.28899 24.17622,-10.77161 7.07291,-4.14214 13.62674,-9.00521 19.63752,-14.58392 1.15796,-1.07471 2.18017,-2.29581 3.30087,-3.41315 1.30704,-1.3035 2.78977,-2.45547 3.95306,-3.87075 2.95483,-3.5994 5.84839,-7.25467 8.6222,-10.99507 1.87135,-2.52198 3.49785,-5.2222 5.33461,-7.99957 z M 36.130587,78.719784 c 1.988508,-1.779749 3.846576,-3.69252 5.952215,-5.272744 4.530709,-3.397218 9.194522,-6.6162 13.791785,-9.925629 0.574989,-0.412348 0.878459,-0.223465 1.091416,0.340524 0.103818,0.279331 0.09849,0.611865 0.242242,0.861938 2.371836,4.094221 4.783603,8.167164 7.123494,12.280006 0.489804,0.859282 0.979612,0.838001 1.706337,0.441613 5.318654,-2.913047 10.842292,-5.339249 16.709324,-6.927456 0.849178,-0.228785 0.958319,-0.622517 0.734711,-1.43923 -1.512011,-5.512167 -2.960132,-11.040303 -4.44819,-16.560453 -1.197897,-4.434739 -2.465005,-8.853522 -3.612325,-13.301564 -0.242242,-0.941753 -0.6442,-1.053484 -1.392222,-0.779471 -5.334632,1.95267 -10.738477,3.743061 -15.977277,5.929837 -3.497861,1.46051 -6.825353,3.375937 -10.104922,5.296688 -3.537794,2.072383 -6.998382,4.291081 -10.368465,6.626839 -2.552851,1.769104 -4.961956,3.761681 -7.33911,5.767556 -1.935271,1.633437 -3.726791,3.434467 -5.624793,5.200912 3.929102,3.910661 7.714453,7.680328 11.51578,11.460634 z m -12.341,-10.715747 c -1.610505,1.814335 -3.394037,3.868097 -5.225489,5.881955 -5.158943,5.669131 -9.3994997,12.003333 -13.1369376,18.646134 -4.410919,7.839944 -7.8661894,16.113524 -10.3365167,24.780824 -0.2209456,0.77415 -0.1357603,1.14925 0.7985972,1.38602 4.15004771,1.05082 8.2787991,2.19476 12.3995628,3.34933 2.2520463,0.6305 2.2866513,0.68637 2.9095563,-1.47913 1.794185,-6.24907 4.378979,-12.17359 7.309835,-17.95712 0.633552,-1.253 1.312362,-2.48473 1.993833,-3.77498 0.48182,0.348501 0.873131,0.683699 1.309701,0.936432 3.865211,2.242638 7.741073,4.474648 11.614274,6.703988 1.732955,0.99762 1.655758,0.93643 2.803076,-0.6837 2.387809,-3.36529 4.826195,-6.693346 7.33113,-9.973515 1.21653,-1.593527 2.624722,-3.038081 3.740097,-4.312369 C 39.426134,83.633382 31.671747,75.881225 23.792249,68.001375 Z M 154.03557,232.297 c 14.73678,-8.69921 26.40963,-20.27158 35.02117,-34.98843 -0.20231,-0.16228 -0.35671,-0.31924 -0.54039,-0.42565 -6.32489,-3.65262 -12.64446,-7.31853 -18.98267,-10.94719 -3.23698,-1.85158 -6.53519,-3.59143 -9.76152,-5.45896 -4.47215,-2.58849 -8.90703,-5.2488 -13.35256,-7.88518 -0.567,-0.33519 -0.86781,-0.21282 -1.2671,0.34319 -2.04974,2.85185 -4.16336,5.65583 -6.08798,8.24963 7.84755,7.93305 15.77496,15.94591 23.98455,24.24343 -5.67271,4.38952 -11.23361,8.69124 -16.95423,13.11801 2.51292,4.35225 5.19355,8.99455 7.93806,13.74583 z m -8.80322,-13.70858 c -1.42682,0.73158 -2.63537,1.34611 -3.84125,1.97128 -5.34528,2.76938 -10.95676,4.83379 -16.77854,6.34221 -5.93092,1.53765 -11.97631,2.23998 -18.08824,2.38363 -1.05947,0.0241 -1.10206,0.54271 -1.0994,1.34077 0.0186,4.69816 0.005,9.39626 0.016,14.09436 0,0.51348 0.13576,1.02955 0.1331,1.54303 -0.0373,5.17691 -0.10382,10.35126 -0.0985,15.52556 0,0.26334 0.58032,0.75554 0.88645,0.75287 2.33723,-0.032 4.6851,-0.0532 7.00902,-0.28199 3.52981,-0.34586 7.06493,-0.73956 10.56013,-1.33014 3.17842,-0.53742 6.31424,-1.34615 9.4554,-2.08838 0.2795,-0.0665 0.71341,-0.57727 0.66283,-0.78746 -0.51642,-2.20538 -1.10472,-4.3975 -1.69835,-6.58426 -0.8332,-3.05938 -1.69036,-6.11341 -2.53688,-9.17276 1.14732,-0.32724 2.32925,-0.6784 3.51916,-1.00296 6.68692,-1.81433 12.86807,-4.82843 18.98533,-7.98891 0.8119,-0.42034 0.945,-0.93641 0.47915,-1.69995 -0.70809,-1.15988 -1.3869,-2.33574 -2.06836,-3.5116 -1.82347,-3.14449 -3.63895,-6.29165 -5.49702,-9.5053 z M 104.6556,67.700761 c -3.3195,0.247412 -6.503245,0.260713 -9.607133,0.766172 -4.160692,0.678384 -8.302752,1.574906 -12.372941,2.665635 -5.728605,1.535002 -11.100506,3.995791 -16.31801,6.815725 -1.011563,0.548024 -0.97163,1.008258 -0.495134,1.81433 1.315024,2.22136 2.608752,4.458687 3.905144,6.690691 1.200558,2.064403 2.398454,4.128804 3.633616,6.262372 5.039154,-2.851851 10.211406,-4.972121 15.468841,-6.461897 1.541293,5.788842 3.047984,11.45531 4.450853,16.720071 -3.819959,1.58554 -7.46423,3.09926 -11.289512,4.69013 2.853656,4.9402 5.539608,9.58511 8.260162,14.2912 0.779965,-0.36978 1.4082,-0.66241 2.031103,-0.96569 3.415337,-1.64673 6.950461,-2.8891 10.794381,-2.83324 1.2538,0.0186 1.56791,-0.37776 1.56259,-1.5882 -0.0426,-10.32468 -0.024,-20.652014 -0.024,-30.979352 0,-5.847368 0,-11.694731 0,-17.887947 z M 160.78904,179.9713 c 0.22361,0.13834 0.44189,0.27668 0.6655,0.40703 4.96461,2.85718 9.93455,5.70371 14.89385,8.56887 5.10304,2.94763 10.19543,5.91388 15.29847,8.86417 3.79065,2.19209 7.59997,4.34695 11.36671,6.57895 0.83854,0.49748 1.25913,0.45758 1.74895,-0.42831 4.33104,-7.8027 7.76766,-15.9672 10.20873,-24.55735 0.32743,-1.15458 -0.16507,-1.39666 -1.01954,-1.62811 -5.90965,-1.60683 -11.81129,-3.24027 -17.72357,-4.83113 -5.03915,-1.35676 -10.09427,-2.66297 -15.13875,-4.00111 -4.26983,-1.13329 -8.55564,-2.22136 -12.79619,-3.45841 -1.30172,-0.38042 -1.57857,0.0958 -1.9406,1.17586 -0.82521,2.48207 -1.7649,4.92956 -2.77113,7.34512 -0.83853,2.00588 -1.83944,3.94259 -2.7951,5.96442 z M 47.62241,246.93941 c 0.449876,-0.75022 0.795933,-1.30624 1.120698,-1.87287 2.667315,-4.62101 5.326647,-9.24992 7.999288,-13.86825 2.904233,-5.01465 5.829766,-10.01607 8.726014,-15.03608 2.169522,-3.76168 4.227242,-7.58722 6.49792,-11.28505 0.716077,-1.16522 0.417934,-1.60151 -0.540385,-2.21072 -3.748082,-2.37832 -7.365732,-4.93755 -10.485588,-8.12992 -0.697441,-0.71296 -1.179264,-0.53738 -1.83411,0.12504 -3.97968,4.02505 -8.007278,8.00222 -12.010914,12.00333 -4.112781,4.11284 -8.214907,8.23899 -12.322365,12.35982 -2.118945,2.12559 -4.240554,4.2432 -6.354178,6.37148 -1.256458,1.26365 -2.496947,2.54058 -3.811968,3.87871 6.963772,6.93544 14.606352,12.70032 23.015588,17.66184 z M -9.3016406,148.72859 c 0.3247628,9.77133 1.3097007,19.30323 3.9211117,28.66487 0.6175825,-0.14897 1.0781083,-0.25007 1.5306463,-0.37244 5.2600965,-1.42061 10.5228574,-2.83855 15.7829536,-4.27246 4.927349,-1.34347 9.846712,-2.72683 14.779384,-4.05166 5.052462,-1.3541 10.110248,-2.69224 15.186671,-3.95323 0.979612,-0.24208 0.979612,-0.54802 0.838525,-1.43923 -0.644202,-4.1022 -1.152644,-8.22569 -1.716984,-12.33853 -0.103817,-0.75553 -0.226269,-1.5084 -0.335413,-2.23466 H -9.304305 Z M 162.88669,91.398834 c 14.99767,15.770336 22.93306,34.459036 23.43618,56.278926 h 16.08377 c -0.68146,-26.33178 -10.25932,-48.728956 -28.11065,-67.625164 -3.86521,3.844155 -7.58402,7.541987 -11.4093,11.343579 z M 135.564,147.79482 h 33.09389 c -0.14109,-11.09617 -3.09324,-21.27719 -8.53701,-30.87826 -5.03383,2.92901 -9.88664,5.74894 -14.76341,8.58749 -0.31944,-0.61453 -0.61226,-1.28227 -0.99559,-1.8968 -1.85807,-2.97157 -4.03025,-5.66115 -6.5139,-8.16717 -2.5209,-2.54857 -5.34793,-4.62627 -8.28145,-6.61885 -0.6655,-0.45225 -1.06746,-0.39107 -1.45877,0.32455 -0.69478,1.2743 -1.44813,2.514 -2.17219,3.77233 -1.81015,3.14715 -3.61498,6.29696 -5.44377,9.48402 9.38086,5.88727 14.07395,14.43751 15.06954,25.39269 z m -86.402959,-31.264 c -0.10382,-0.0639 -0.316777,-0.20751 -0.537723,-0.33786 -6.087978,-3.53024 -12.178617,-7.05516 -18.266592,-10.58539 -2.848335,-1.6494 -5.686015,-3.31741 -8.547664,-4.94553 -0.529733,-0.30061 -1.136671,-0.798088 -1.605179,0.22081 -2.087002,4.53318 -4.370991,8.98388 -6.27964,13.59154 -1.208545,2.91837 -1.7649,6.1001 -2.813727,9.09295 -1.6397868,4.66885 -2.2573693,9.51594 -2.8163836,14.379 -0.3460644,3.00615 -0.5111088,6.03092 -0.7852913,9.04506 -0.066551,0.72627 0.2422393,0.93909 0.9077378,0.93909 4.8794351,-0.0106 9.7588681,0.0106 14.6382981,-0.0479 0.314118,-0.003 0.854501,-0.56399 0.894431,-0.91249 0.252887,-2.1788 0.284832,-4.3842 0.593625,-6.55235 0.527074,-3.71646 1.205883,-7.4143 1.81814,-11.12011 0.125113,-0.75553 0.239577,-1.51106 0.35937,-2.26925 0.763992,0.21283 1.52532,0.43363 2.294636,0.63582 3.338142,0.88322 6.673617,1.7691 10.014416,2.63371 1.41352,0.36446 2.840344,0.67837 3.897159,0.9311 2.140241,-5.04661 4.150045,-9.78729 6.234387,-14.69822 z m -13.30198,100.4348 c 0.742696,-0.70232 1.203222,-1.11733 1.642452,-1.55362 3.886507,-3.88406 7.770357,-7.77344 11.654207,-11.65749 3.183737,-3.18706 6.356837,-6.38209 9.561875,-9.54787 0.670822,-0.66242 0.724062,-1.12531 0.01331,-1.83295 -1.086091,-1.08275 -2.113624,-2.24265 -3.037335,-3.46639 -1.818137,-2.41557 -3.559082,-4.89232 -5.310671,-7.35843 -0.362032,-0.50812 -0.694783,-0.91781 -1.37359,-0.52408 -4.080833,2.3863 -8.174979,4.74866 -12.234521,7.16688 -1.594533,0.94974 -1.559925,1.00827 -2.390465,-0.52674 -0.06389,-0.11705 -0.141087,-0.22613 -0.204976,-0.34318 -2.571488,-4.83379 -4.90339,-9.77931 -6.436701,-15.05205 -0.732044,-2.52198 -0.652187,-2.54326 -3.119856,-2.02982 -0.04259,0.008 -0.09051,0 -0.133096,0.0106 -4.134074,1.08275 -8.268152,2.15751 -12.396901,3.25356 -0.636217,0.1676 -0.894432,0.55866 -0.641543,1.26896 0.39664,1.1067 0.7214,2.23999 1.056812,3.36796 2.158878,7.24138 5.483707,13.96133 9.332947,20.41791 1.748933,2.93167 3.708156,5.75692 5.792499,8.46512 2.590117,3.36529 5.406506,6.55767 8.220231,9.94159 z M 218.7699,83.151864 c -5.4225,3.136506 -10.64265,6.158624 -15.86547,9.178081 -3.77473,2.181455 -7.54941,4.357592 -11.33211,6.525749 -1.49338,0.856623 -1.50135,0.904507 -0.68945,2.386306 3.27959,5.98037 6.01342,12.19487 7.93541,18.75254 0.72139,2.46079 0.72403,2.50868 3.13849,1.89148 5.15099,-1.31951 10.28856,-2.68425 15.42891,-4.03835 1.95123,-0.51344 3.8998,-1.0455 5.84841,-1.57224 2.77645,-0.75553 5.55291,-1.51372 8.35064,-2.27723 -2.96809,-10.88068 -7.19005,-21.077668 -12.81483,-30.841018 z M 50.100722,116.06792 c 0.867812,0.53738 1.450787,0.92047 2.055059,1.26897 4.626543,2.65765 9.261075,5.29668 13.879634,7.96498 4.136733,2.38896 8.252174,4.81516 12.404881,7.17753 0.258218,0.14631 0.910402,0 1.118039,-0.23677 0.630891,-0.72095 1.110052,-1.57491 1.693027,-2.34108 0.835863,-1.09605 1.573239,-2.31714 2.598105,-3.20302 1.796846,-1.55096 3.78003,-2.8891 5.78717,-4.39218 -2.874952,-4.94818 -5.701988,-9.81389 -8.544994,-14.70621 0.9104,-0.42831 1.882026,-0.90982 2.87229,-1.34611 1.927281,-0.84599 3.833268,-1.75315 5.805805,-2.47676 2.520908,-0.92313 2.544869,-0.85662 2.08434,-3.49033 -0.02928,-0.17292 -0.07454,-0.340517 -0.117128,-0.510779 -1.024866,-3.836172 -2.057718,-7.669683 -3.071942,-11.505853 -0.212958,-0.800756 -0.449874,-1.127972 -1.456106,-0.843322 -5.465069,1.553625 -10.514872,4.006431 -15.3597,6.908836 -5.033828,3.014131 -9.55389,6.709308 -13.4191,11.096168 -2.946829,3.34401 -5.520976,7.01524 -8.332039,10.63593 z M 218.38658,82.406977 c -5.44108,-9.199364 -11.67551,-17.56605 -19.00929,-25.100057 -1.30971,-1.346121 -1.33368,-1.343459 -2.71258,0.03458 -3.80135,3.796266 -7.592,7.603175 -11.39332,11.402105 -3.25562,3.25356 -6.50059,6.520424 -9.79348,9.736744 -0.71607,0.699664 -0.68679,1.135954 0,1.832956 5.17492,5.259443 9.56188,11.136077 13.41379,17.414415 0.64686,1.053483 1.15264,1.101365 2.18016,0.497474 6.31426,-3.705815 12.66844,-7.337144 19.00931,-10.995072 2.73119,-1.577568 5.45709,-3.165774 8.30805,-4.820491 z M 56.074238,64.221075 c -1.410856,0.93377 -2.595443,1.766448 -3.825284,2.521974 -5.414492,3.330712 -10.248673,7.393011 -14.907162,11.686757 -0.636212,0.585271 -0.681466,0.989639 -0.04791,1.601509 3.628292,3.503634 7.23796,7.028548 10.815675,10.580068 0.212957,0.212823 0.295481,0.875242 0.130437,1.090724 -0.433901,0.561329 -1.067459,0.963036 -1.570572,1.47914 -4.040907,4.134122 -7.323146,8.848203 -10.469618,13.668683 -0.407287,0.62252 -0.404625,1.04285 0.351382,1.47116 3.953058,2.25328 7.887483,4.53317 11.79263,6.86627 1.120698,0.67039 1.669066,0.45491 2.374495,-0.63582 2.978769,-4.5917 6.12258,-9.10359 10.315221,-12.67373 3.404687,-2.899741 7.062263,-5.506847 10.679911,-8.148542 0.817234,-0.595908 0.875797,-0.989634 0.412612,-1.779752 -2.781786,-4.745995 -5.536943,-9.510614 -8.292107,-14.27258 -1.559925,-2.694895 -3.09856,-5.400436 -4.650497,-8.097991 -1.003575,-1.742506 -2.017794,-3.479691 -3.106549,-5.35787 z M 160.14484,179.63877 c 0.52175,-0.94974 1.06746,-1.75581 1.43215,-2.63903 1.50136,-3.63399 2.95481,-7.28926 4.40293,-10.94719 0.2316,-0.58793 0.34872,-1.22109 0.51909,-1.83562 0.61226,0.17026 1.22186,0.34318 1.83412,0.51344 4.79159,1.32218 9.58317,2.64436 14.52915,4.00643 1.8208,-6.61353 2.5635,-13.24836 2.73919,-19.97629 h -49.93365 c -0.39132,2.1788 -0.79061,4.27512 -1.11538,6.38209 -0.0346,0.21815 0.34074,0.65444 0.60694,0.73691 1.50136,0.46555 3.02136,0.87258 4.54135,1.26897 3.25562,0.8513 6.50059,1.73186 9.77484,2.50069 1.54395,0.36447 1.55993,0.25539 0.92904,1.63876 -0.17836,0.39372 -0.26088,0.83267 -0.42326,1.23438 -1.22186,2.98487 -2.45436,5.96442 -3.7401,9.08497 4.51207,2.60445 9.13595,5.2754 13.90359,8.02883 z M 10.562143,173.96698 c -2.6779613,0.69168 -5.0817432,1.29557 -7.4748729,1.93937 -2.40111758,0.64379 -4.7836005,1.35942 -7.1900441,1.97661 -0.851834,0.21814 -1.0674588,0.53738 -0.7639897,1.394 0.6042687,1.68931 1.1047254,3.41585 1.6371253,5.12909 2.49428788,8.02084 6.2263998,15.4777 10.4563067,22.69247 1.4827329,2.5273 3.0107147,5.06258 4.8261907,7.35311 3.649593,4.60766 7.512148,9.04509 11.273541,13.56229 0.582978,0.69964 1.022204,0.57727 1.610505,-0.0241 2.326582,-2.37567 4.677125,-4.72742 7.05162,-7.05251 1.195234,-1.17054 2.462345,-2.26393 3.8173,-3.50363 -12.261141,-12.53806 -20.614476,-26.96494 -25.243682,-43.4642 z m 204.725867,3.49299 c 2.08701,-4.00643 4.76232,-24.93778 3.88118,-28.76331 -4.53602,0 -9.09336,0 -13.6507,0 -6.02674,0 -12.05347,0.0212 -18.08024,-0.0186 -1.03552,-0.008 -1.40021,0.27401 -1.38424,1.34878 0.0213,1.62279 -0.0958,3.25356 -0.25023,4.87103 -0.21562,2.26393 -0.44455,4.53317 -0.80658,6.77848 -0.38066,2.35172 -0.92371,4.67683 -1.45079,7.27862 5.30536,1.32749 10.64,2.5938 15.93471,4.01175 5.3,1.4206 10.55745,2.99551 15.80689,4.49327 z M 93.398033,193.28085 c 0.431244,0.17027 0.705432,0.31392 0.998249,0.38575 3.99565,1.01358 8.084478,1.3807 12.178618,1.28759 4.11012,-0.0931 8.13771,-0.92047 12.07746,-2.13889 3.97702,-1.22906 7.6905,-3.0434 11.15375,-5.30999 2.47831,-1.62279 4.77562,-3.51959 7.15011,-5.29934 0.64687,-0.48418 0.59362,-1.0189 0.0559,-1.55628 -3.41534,-3.41318 -6.83599,-6.82105 -10.24334,-10.24221 -0.47118,-0.47354 -0.73205,-0.44427 -1.28309,0.0239 -1.75957,1.49776 -3.50318,3.0833 -5.4837,4.23522 -1.90599,1.10669 -4.10213,1.70792 -6.16784,2.5406 -0.43923,0.17558 -0.86514,0.3884 -1.26711,0.57197 -1.48805,-5.584 -2.91222,-10.92857 -4.3417,-16.29974 -0.43657,0 -0.79062,-0.0346 -1.13934,0.005 -1.2751,0.14365 -2.52889,0.43097 -3.82528,0.0212 -1.13401,-0.35914 -1.56259,0.4363 -1.79951,1.3408 -1.44014,5.46694 -2.85632,10.93921 -4.301781,16.40349 -1.227177,4.64225 -2.486297,9.27651 -3.761396,14.02783 z M 24.582864,147.92251 c 0.833199,0 1.575898,0.008 2.318591,0 4.727699,-0.0638 9.455401,-0.18356 14.183098,-0.18356 5.172252,0 10.344504,0.12769 15.516759,0.15962 0.391311,0 1.032849,-0.24209 1.131345,-0.52142 0.242245,-0.6837 0.311455,-1.45519 0.314116,-2.1921 0.01064,-4.7061 1.256459,-9.14616 2.962797,-13.46916 0.878459,-2.22403 1.932606,-4.37622 2.973445,-6.70666 -4.666469,-2.68957 -9.306324,-5.36319 -14.020715,-8.07937 -2.667315,5.04129 -5.164267,9.97086 -6.165173,15.44844 -2.755164,-0.76351 -5.481044,-1.53766 -8.220236,-2.27723 -2.731204,-0.7369 -5.470392,-1.44189 -8.198937,-2.16017 -1.983184,5.48024 -2.832362,16.07893 -2.79509,19.98161 z m 113.291746,34.36327 c 0.0825,-0.11706 0.16771,-0.23677 0.25022,-0.35382 -0.60427,0.49747 -1.19523,1.01624 -1.81814,1.49243 -2.52623,1.92607 -4.90072,4.12615 -7.64258,5.67711 -2.98675,1.6893 -6.2823,2.86516 -9.51396,4.07028 -1.25113,0.46556 -1.4641,0.97102 -1.12602,2.16017 1.11804,3.95057 2.15355,7.92774 3.21568,11.89427 0.58298,2.18145 0.60694,2.26658 2.74718,1.59352 4.33372,-1.36474 8.53435,-3.04872 12.37561,-5.5361 0.25821,-0.16761 1.05681,-0.008 1.19789,0.2341 1.7516,3.02743 3.41534,6.10275 5.12966,9.15148 0.93702,1.66801 1.92995,3.30411 2.89359,4.94552 4.1953,-2.2054 14.32684,-10.00544 15.72173,-11.91555 -7.84224,-7.83728 -15.63921,-15.62402 -23.43352,-23.41341 z m -66.358159,-0.57995 c -2.611413,-3.42382 -5.265417,-6.29962 -7.187377,-9.60107 -1.855409,-3.18706 -2.941502,-6.82371 -4.413583,-10.23955 -0.154398,-0.35914 -0.649523,-0.83268 -0.966303,-0.81671 -0.817232,0.0426 -1.62914,0.30061 -2.433061,0.51876 -5.084405,1.3807 -10.160825,2.78535 -15.247895,4.15807 -4.136739,1.11467 -8.281461,2.19475 -12.423523,3.28815 -0.793272,0.21016 -1.365597,0.46023 -1.046158,1.53234 1.701012,5.68508 3.971693,11.12277 6.81204,16.33432 0.529732,0.97101 0.998243,1.10669 1.937927,0.54536 3.125181,-1.86754 6.295615,-3.65792 9.44209,-5.4829 1.37891,-0.80076 2.7525,-1.61481 4.147381,-2.43419 0.162388,0.4895 0.215625,0.89653 0.417936,1.21044 2.52091,3.91864 5.201533,7.71225 8.401248,11.1281 0.894432,0.95505 1.410856,0.81405 2.206792,-0.0452 1.373587,-1.48445 2.8297,-2.89442 4.28581,-4.30439 2.023113,-1.96065 4.07551,-3.89204 6.064017,-5.78884 z m 0.700104,0.57729 c -3.883845,3.7005 -7.751718,7.38237 -11.808598,11.24781 2.347881,1.92606 4.445529,3.80956 6.713548,5.45896 2.031101,1.47913 4.259186,2.68691 6.367484,4.06761 0.151736,0.0984 0.117128,0.66509 0,0.94441 -0.141084,0.33787 -0.508439,0.57463 -0.697442,0.90185 -2.310611,3.97185 -4.597262,7.957 -6.915853,11.92353 -0.447218,0.76616 -0.540385,1.24768 0.404624,1.77443 5.297358,2.9423 10.847615,5.26478 16.666732,6.94613 0.710753,0.20481 1.051488,-0.0373 1.267108,-0.85929 1.434814,-5.47763 2.965463,-10.92595 4.440206,-16.3929 1.147318,-4.25384 2.246722,-8.52098 3.378067,-12.78014 0.487146,-1.83296 0.431245,-1.70526 -1.392221,-2.41557 -3.181083,-1.23704 -6.468642,-2.36768 -9.372878,-4.10752 -3.287562,-1.96863 -6.202445,-4.56244 -9.048113,-6.70931 z m 54.224795,-13.4 c 0.35404,0.44693 0.68945,0.96037 1.11538,1.38868 1.88735,1.90745 3.80665,3.78297 5.70199,5.67977 1.33365,1.33814 2.61141,2.7348 4.00097,4.01441 0.34872,0.3219 1.31502,0.56931 1.50136,0.37511 1.142,-1.19182 2.23341,-2.45813 3.16777,-3.82021 1.16329,-1.69196 2.03642,-3.58876 3.26094,-5.23018 2.15355,-2.88909 3.28756,-6.20917 4.44287,-9.54254 0.26886,-0.77947 0.26886,-1.18384 -0.77997,-1.41263 -2.42773,-0.53206 -4.79691,-1.33015 -7.20601,-1.95533 -2.36917,-0.61719 -4.74367,-1.24769 -7.15011,-1.68131 -1.04084,-0.18889 -1.11271,-0.39639 -0.74536,-1.30888 0.8545,-2.12559 1.1553,-4.34961 0.92105,-6.62152 h -15.9267 c -0.39131,1.39401 -0.58032,2.75874 -1.14998,3.93726 -0.83853,1.73453 -1.71433,3.56216 -3.0187,4.92691 -1.20588,1.26098 -3.0187,1.92872 -4.5174,2.93166 -0.41527,0.27934 -1.01422,0.90184 -0.93436,1.21576 1.18192,4.65289 2.48896,9.27385 3.70549,13.91876 0.22627,0.85928 0.50578,1.15458 1.35229,0.72893 2.3745,-1.19182 4.84749,-2.21338 7.11551,-3.57812 1.82346,-1.09871 3.40203,-2.59913 5.14829,-3.96653 z m -36.764782,4.91094 c 0.447215,-0.56665 0.697442,-0.81406 0.870471,-1.10935 2.403779,-4.13413 4.807559,-8.2656 7.166084,-12.42366 0.154397,-0.27136 0.103819,-0.96304 -0.08785,-1.08275 -1.464093,-0.92047 -2.595444,-2.10963 -3.535125,-3.56748 -1.107389,-1.72389 -2.212112,-3.43446 -2.201465,-5.55208 0.0053,-1.04816 -0.306134,-1.38602 -1.365602,-1.37538 -4.741011,0.0479 -9.484683,0.0186 -14.228353,0.024 -0.298146,0 -0.593622,0.0665 -1.144656,0.13301 0.452535,2.63105 0.889106,5.18229 1.323009,7.70693 -0.684133,0.11705 -1.384239,0.18622 -2.055061,0.35648 -4.240551,1.08009 -8.475779,2.18412 -12.711009,3.27751 -1.389563,0.35914 -1.493377,0.60921 -1.022207,2.05376 1.072782,3.29081 2.616739,6.32623 4.341709,9.34036 1.740945,3.0434 3.788016,5.78086 6.045382,8.41457 0.721403,0.84332 1.211207,0.71297 1.913975,-0.0186 1.677054,-1.75314 3.455268,-3.41052 5.132324,-5.16101 1.812814,-1.89147 3.548436,-3.85745 5.355927,-5.75691 0.133098,-0.13834 0.668162,-0.10907 0.843851,0.0426 1.754256,1.4951 3.471241,3.03276 5.355931,4.69812 z m -14.148491,-18.005 c -0.234257,-2.05908 -0.46319,-4.09157 -0.700106,-6.12138 -0.06921,-0.59858 -0.175691,-1.19182 -0.266197,-1.78773 0.676142,0.016 1.352293,0.0426 2.028438,0.0426 4.347036,0.003 8.694069,0.008 13.03844,0 2.422414,-0.005 2.230752,0.32456 2.236076,-2.31979 0,-0.0851 -0.04526,-0.17026 -0.109146,-0.39373 -1.770221,-0.5028 -3.606999,-1.05614 -5.459743,-1.54298 -4.544023,-1.19448 -9.104017,-2.33044 -13.642716,-3.54088 -3.668226,-0.97899 -7.317814,-2.01651 -10.967408,-3.06202 -1.123357,-0.32189 -2.02311,-0.21548 -2.206789,1.10137 -0.479158,3.44777 -0.883783,6.90617 -1.349632,10.61199 H 41.276217 c 0.279509,2.64967 0.468511,5.09184 0.817232,7.51007 0.335412,2.32777 0.859824,4.62628 1.2538,6.94608 0.154392,0.90716 0.601609,1.0322 1.402871,0.81139 5.664721,-1.55096 11.332104,-3.08863 17.00481,-4.61032 4.59726,-1.23173 9.199843,-2.43685 13.775809,-3.64463 z m 29.055643,-37.34814 c -11.137768,1.09339 -19.712049,5.91121 -25.296908,15.55219 -0.846516,-0.53738 -1.66641,-1.09339 -2.518247,-1.59353 -3.70283,-2.17613 -7.413651,-4.33897 -11.12979,-6.49116 -0.476493,-0.27668 -1.040839,-0.68104 -1.408192,0.1676 -1.245812,2.89176 -2.515584,5.77554 -3.705495,8.69124 -0.23958,0.58793 -0.295484,1.22641 0.718738,1.48445 5.366578,1.36741 10.711855,2.8093 16.062463,4.24054 4.735682,1.26632 9.460722,2.56455 14.204394,3.79627 0.306129,0.0798 0.976951,-0.20218 1.054148,-0.44693 0.476493,-1.53766 1.349632,-2.83323 2.427737,-3.96387 1.118037,-1.1732 2.220103,-2.49803 3.607001,-3.2376 1.799511,-0.95771 3.873201,-1.40198 5.986821,-2.12293 v -16.07627 z m 30.26686,29.48159 c -0.46052,-8.53428 -3.68685,-15.63998 -9.77217,-21.27186 -5.43845,-5.03597 -11.96832,-7.81601 -19.64018,-8.09268 0,5.33127 -0.0133,10.45769 0.0399,15.58412 0.003,0.26337 0.57765,0.71828 0.91838,0.75287 3.20771,0.32189 5.94423,1.87286 8.07649,4.01441 2.13492,2.14687 3.70017,4.87901 3.99831,8.10332 0.0293,0.32721 0.52441,0.86992 0.80659,0.87258 5.09239,0.0532 10.18478,0.0399 15.56999,0.0399 z m -29.43897,-12.7163 c -4.89541,0.42034 -8.507734,2.55656 -11.121809,6.32091 -1.408195,2.02982 -2.438387,4.48263 -2.241397,6.78912 0.625568,7.42227 6.021427,12.96637 13.027786,12.93178 7.41366,-0.0346 13.04377,-6.08148 12.95592,-12.98499 -0.0932,-7.29458 -5.99214,-12.35449 -12.6205,-13.05682 z m -15.173361,39.60675 c -1.847424,-1.47116 -3.708156,-2.92635 -5.531622,-4.42411 -0.489807,-0.4017 -0.742694,-0.5161 -1.280417,0.0319 -3.425986,3.47171 -6.921183,6.87691 -10.341843,10.35394 -0.207634,0.21283 -0.154395,1.0322 0.07986,1.26897 0.859824,0.87258 1.794185,1.69994 2.803081,2.39428 2.04707,1.40731 4.200623,2.66031 6.239708,4.07826 2.906898,2.02184 6.143879,3.28549 9.48468,4.33631 0.633553,0.19953 1.168615,0.0851 1.291067,-0.83001 0.133101,-0.98699 0.513768,-1.93938 0.76133,-2.91305 1.030192,-4.04368 2.004481,-8.10331 3.082586,-12.13635 1.341647,-5.01469 2.733869,-10.01874 4.174001,-15.00683 0.36736,-1.27695 -0.66816,-1.17585 -1.24048,-1.57224 -0.684136,-0.47354 -1.134013,-0.21815 -1.506689,0.43097 -1.538631,2.68958 -3.093236,5.36852 -4.637193,8.05809 -1.115375,1.94735 -2.2201,3.90002 -3.378068,5.9325 z"
       id="path1"
       style="stroke-width:0.266118" />
  </g>
</svg>
