<?xml version="1.0" encoding="UTF-8" standalone="no"?>
<svg
   id="Layer_3"
   data-name="Layer 3"
   preserveAspectRatio="xMaxYMax"
   version="1.1"
   sodipodi:docname="sector_map.svg"
   width="1270"
   height="1270.001"
   viewBox="0 0 1270 1270"
   inkscape:version="1.3.2 (091e20e, 2023-11-25, custom)"
   xmlns:inkscape="http://www.inkscape.org/namespaces/inkscape"
   xmlns:sodipodi="http://sodipodi.sourceforge.net/DTD/sodipodi-0.dtd"
   xmlns="http://www.w3.org/2000/svg"
   xmlns:svg="http://www.w3.org/2000/svg">
  <defs
     id="defs1" />
  <sodipodi:namedview
     id="namedview1"
     pagecolor="#ffffff"
     bordercolor="#000000"
     borderopacity="0.25"
     inkscape:showpageshadow="2"
     inkscape:pageopacity="0.0"
     inkscape:pagecheckerboard="0"
     inkscape:deskcolor="#d1d1d1"
     inkscape:zoom="0.31269231"
     inkscape:cx="167.89668"
     inkscape:cy="781.91882"
     inkscape:window-width="1920"
     inkscape:window-height="1009"
     inkscape:window-x="-8"
     inkscape:window-y="-8"
     inkscape:window-maximized="1"
     inkscape:current-layer="Layer_3" />
  <path
     stroke="#c0c0c0"
     fill="#c0c0c0"
     d="m -1.5116283,1259.3763 c -1.51922,-0.3317 -3.02838,-0.945 -4.5476,-0.9652 -9.7189997,-0.1408 -19.4782497,0.3117 -29.1569897,-0.3116 -12.71721,-0.8145 -25.41428,-2.2221 -38.07112,-3.7908 -13.9547,-1.7294 -27.949662,-3.4185 -41.743402,-6.083 -15.8663,-3.0567 -31.54146,-7.1088 -47.26691,-10.8289 -31.80306,-7.521 -62.19758,-19.1241 -92.03873,-32.2054 -29.97194,-13.1416 -58.85728,-28.4649 -86.01212,-46.7143 -19.00538,-12.7694 -37.50769,-26.3835 -55.4164,-40.6311 -14.28673,-11.3719 -27.5774,-24.0408 -40.89827,-36.569 -23.36181,-21.9797 -44.56049,-45.9401 -63.13324,-72.0924 -13.35104,-18.80242 -26.56124,-37.76562 -38.57417,-57.42262 -16.12789,-26.3835 -30.0323,-54.04417 -40.72723,-83.1325 -7.908,-21.52718 -16.14802,-43.04429 -22.21485,-65.12447 -6.51958,-23.7191 -11.2181,-47.99121 -15.69528,-72.21305 -3.76284,-20.37088 -6.42902,-40.96295 -6.25799,-61.81646 0.0604,-8.14433 -0.78476,-16.29873 -0.89543,-24.4531 -0.16098,-12.27683 -0.7244,-24.59386 0.11067,-36.81036 1.37837,-20.33065 2.88753,-40.72165 5.88573,-60.85121 3.68235,-24.7648 8.16959,-49.47932 13.81386,-73.86204 3.81314,-16.4998 9.90009,-32.50693 15.53429,-48.53417 9.83974,-28.00241 21.76212,-55.13007 35.59609,-81.40305 17.69743,-33.63308 37.87995,-65.69761 61.99634,-95.12779 12.4053,-15.13236 25.39416,-29.80222 38.44337,-44.39163 22.49656,-25.16697 48.41389,-46.55339 74.99525,-67.23596 28.2515,-21.97963 58.50514,-40.741753 90.17742,-57.171173 31.8936,-16.54002 65.06497,-30.13402 99.39335,-40.93279 28.43261,-8.948721 57.33807,-15.896531 86.69627,-20.652421 18.441962,-2.98624 37.135442,-4.645276 55.778612,-6.183649 12.46568,-1.025582 25.02189,-0.945144 37.5479297,-1.075855 14.97088,-0.160877 29.9820103,-0.643504 44.9126303,0.180984 15.69528,0.864707 31.36038,2.734887 46.94498,4.87654 16.03735,2.20198 32.044528,4.80615 47.900778,8.01362 41.64278,8.42585 81.74623,21.788601 120.66247,38.791141 25.10238,10.9697 49.31938,23.61854 72.72151,37.845983 29.2475,17.77677 57.11661,37.46392 82.65161,60.28814 13.985,12.50808 28.1812,24.8955 41.2003,38.36884 34.6603,35.87527 64.9642,75.10882 90.0565,118.37431 14.478,24.95583 27.9799,50.36413 38.2925,77.26053 9.0952,23.71911 17.6873,47.71975 24.7805,72.09239 6.2781,21.60762 10.8056,43.78834 14.9205,65.92884 2.8373,15.26309 4.0748,30.87809 5.2317,46.39253 1.2074,16.2585 1.7205,32.58737 2.0626,48.90619 0.3219,15.29324 0.6639,30.63676 -0.1711,45.89985 -0.7948,14.51901 -2.827,28.98776 -4.7991,43.4163 -2.0625,15.07204 -4.4771,30.11392 -7.1935,45.08539 -1.6502,9.07942 -3.6725,18.16891 -6.4291,26.96679 -8.3307,26.56459 -16.309,53.29006 -25.9979,79.37202 -6.6604,17.94769 -15.8261,34.97034 -24.056,52.31489 -4.1753,8.8078 -8.1997,17.7566 -13.2908,26.0316 -9.2762,15.0721 -18.7538,30.0838 -29.1367,44.4016 -12.9487,17.87742 -26.8229,35.10112 -40.4557,52.48582 -3.5012,4.4542 -7.5357,8.4961 -11.4092,12.6488 -13.1599,14.0966 -26.3701,28.1332 -41.3008,40.4401 -15.8663,13.0712 -31.0182,27.1377 -47.6693,39.1129 -20.71581,14.891 -42.20621,28.8469 -64.17961,41.8377 -29.52925,17.4549 -60.6884,31.8935 -93.13538,43.0343 -23.28133,7.9934 -47.09589,14.4888 -70.87021,20.9338 -13.68305,3.7001 -27.69813,6.2139 -41.66291,8.7779 -8.783308,1.6087 -17.747728,2.1517 -26.591418,3.4789 -24.13651,3.6198 -48.42396,4.4141 -72.7717503,4.0621 -0.50305,0 -1.00611,0.6134 -1.51923,0.9451 h -3.01832 z M 250.83019,203.56958 c 14.71935,9.8838 29.0765,18.93305 42.78974,28.87719 22.45633,16.28864 43.75556,34.03524 62.76106,54.34579 8.65241,9.26041 17.18421,18.64147 25.43441,28.26384 20.5649,23.98052 38.3125,49.93178 53.5953,77.58227 18.8041,34.02521 33.9159,69.56867 43.9668,107.17334 0.8553,3.20748 2.4852,4.26321 5.7851,3.36834 17.2649,-4.6855 34.5699,-9.21013 51.8147,-13.99617 0.9457,-0.26143 2.1429,-2.55392 1.9015,-3.60965 -1.0766,-4.83632 -2.5958,-9.5721 -3.9942,-14.33804 -11.4697,-39.133 -27.6277,-76.25507 -47.8204,-111.65776 -1.1268,-1.97072 -2.4046,-3.861 -3.6119,-5.79151 1.972,-1.16636 3.9439,-2.35282 5.926,-3.49906 9.216,-5.29884 18.4621,-10.54739 27.6578,-15.87641 7.2742,-4.21293 14.5081,-8.50631 22.1546,-13.01082 C 483.3014,226.56474 408.3968,151.61681 313.25916,95.622027 292.28181,131.86931 271.51576,167.77476 250.82013,203.54947 Z M -440.2751,1075.8473 c 79.70383,78.1153 171.95384,131.3552 277.69573,160.2121 10.84585,-40.6009 21.50052,-80.478 32.29604,-120.9081 -7.81745,-2.5639 -15.2727,-5.148 -22.80845,-7.4406 -31.68231,-9.6524 -61.59389,-23.3168 -90.48931,-39.3641 -2.0927,-1.1564 -4.22564,-2.2422 -6.3284,-3.3684 1.20732,-2.2522 2.35428,-4.5548 3.6421,-6.7568 5.25188,-8.9989 10.61443,-17.9376 15.80595,-26.9767 4.08479,-7.1088 7.97843,-14.3381 11.96261,-21.5373 -0.89543,-0.7743 -1.36829,-1.2468 -1.90153,-1.6187 -18.22061,-12.88022 -36.74306,-25.36812 -54.57128,-38.76092 -9.80955,-7.3703 -18.50231,-16.2386 -27.64784,-24.4834 -1.81099,-1.629 -2.8674,-3.2075 -5.54365,-0.4625 -15.02118,15.424 -30.2939,30.6165 -45.5163,45.8394 -17.96907,17.96782 -35.93816,35.93572 -53.98772,53.82292 -10.63457,10.5375 -21.43008,20.9139 -32.60795,31.8031 z m 881.6922,-0.7943 c 6.6606,-6.8472 12.3852,-12.1461 17.426,-18.0281 11.6506,-13.5838 23.2108,-27.2683 34.3785,-41.2546 20.1624,-25.25742 37.7995,-52.27452 52.881,-80.80972 10.9163,-20.64242 21.5408,-41.55624 30.3342,-63.1538 9.3869,-23.03539 16.4901,-46.99581 24.5088,-70.58418 0.9155,-2.68462 0.3018,-4.72573 -3.1593,-5.43962 -5.1713,-1.07585 -10.222,-2.71477 -15.3531,-4.00177 -13.6226,-3.38846 -27.3057,-6.54563 -40.8782,-10.13517 -8.5216,-2.25226 -16.8523,-5.24857 -25.3437,-7.63154 -13.8342,-3.89118 -27.7285,-7.59133 -41.6127,-11.29146 -16.2688,-4.3336 -32.5879,-8.47614 -48.8264,-12.92033 -6.6705,-1.82995 -6.8013,-1.80984 -8.7331,4.43413 -3.6119,11.65343 -6.6805,23.57833 -11.4695,34.74915 -7.9483,18.53086 -17.0033,36.58915 -25.7463,54.77816 -3.0586,6.36463 -3.3001,6.32441 2.8071,9.83351 16.5705,9.52183 33.1712,18.99338 49.8727,28.55544 -2.7668,4.37379 -5.755,9.09952 -8.7532,13.83531 -15.1317,23.92017 -31.6622,46.79467 -50.6374,67.83927 -5.2418,5.8217 -10.70501,11.4423 -16.09771,17.1231 -2.6059,2.7451 -3.9339,4.7057 -0.1107,8.255 14.09561,13.10142 27.80891,26.63512 41.47171,40.18882 5.745,5.6909 10.9867,11.8846 16.5304,17.7767 8.5619,9.0795 17.2044,18.0885 26.5109,27.8716 z M -479.67426,764.30163 c 9.09521,24.08107 17.16419,47.69962 26.9335,70.59424 6.80128,15.92669 15.98704,30.82779 23.92523,46.28191 0.46282,0.90492 -0.25151,3.33817 -1.11677,3.8409 -5.98635,3.44879 -12.24434,6.40486 -18.24074,9.82348 -12.71719,7.25951 -25.33379,14.71006 -37.60829,21.85892 -24.14659,-42.37057 -43.26263,-87.25487 -56.19111,-134.864 -1.26769,0 -2.30398,-0.21115 -3.2296,0.0301 -17.73767,4.67543 -35.46529,9.39112 -53.18285,14.14699 -2.59575,0.69379 -3.09881,2.25226 -2.21343,4.91678 5.69456,17.2539 10.78547,34.71896 16.9026,51.81201 9.69888,27.12764 21.63132,53.31016 35.76713,78.44702 2.79698,4.9771 6.21774,9.6122 9.02477,14.5894 3.06864,5.4395 5.18147,11.4826 8.72295,16.5703 14.18612,20.421 28.12072,41.07362 43.39344,60.67032 12.94859,16.6102 27.66795,31.8332 41.46168,47.8 2.94789,3.4086 4.8092,2.6143 7.59611,-0.201 15.42364,-15.625 31.01829,-31.0893 46.54252,-46.6038 14.50807,-14.4987 29.0262,-29.00792 43.53428,-43.50672 12.44554,-12.4377 24.85085,-24.9258 37.35676,-37.3031 2.02229,-2.0008 2.68631,-3.4689 0.37226,-5.7614 -18.50231,-18.3197 -34.70064,-38.53978 -49.2389,-60.11722 -5.74487,-8.5264 -11.98274,-16.77129 -17.11388,-25.64961 -4.92993,-8.54652 -8.55191,-17.83709 -13.04921,-26.65509 -11.17785,-21.88914 -20.08191,-44.65303 -26.6216,-68.32187 -2.35431,-8.51635 -2.13297,-8.56662 -10.82571,-6.35458 -0.64392,0.16087 -1.33814,0.14076 -1.98203,0.3117 -16.42974,4.39391 -32.85948,8.79787 -50.91911,13.63421 z M 1.4966417,1195.8808 c 0,19.3151 0.11067,37.8862 -0.0906,56.4574 -0.0402,4.0419 1.22746,5.3389 5.19152,5.0976 18.1099403,-1.0959 36.2903003,-1.468 54.3398703,-3.1672 18.10992,-1.7094 36.2903,-3.7102 54.088338,-7.34 23.48256,-4.7861 46.90472,-10.3564 69.84398,-17.2841 31.16919,-9.4112 61.49328,-21.3058 90.55972,-36.1367 11.77147,-6.0026 23.46243,-12.1662 35.38481,-18.3599 -31.96404,-55.281 -63.46526,-109.7674 -94.32259,-163.148 -21.91302,9.7631 -42.60865,19.4458 -63.6866,28.2135 -12.9184,5.3693 -26.2292,10.0447 -39.7211,13.755 -13.190078,3.6296 -26.732278,6.4651 -40.304688,8.1543 -21.88282,2.7248 -43.90652,4.3637 -65.9100903,6.1133 -4.00432,0.3217 -5.59396,1.0658 -5.47323,5.3792 0.29178,10.5476 0.0906,21.1049 0.0906,31.6624 0,7.9935 0,15.9869 0,24.7447 44.0171903,-0.4424 86.8170103,-5.5904 128.5604083,-17.7768 1.69026,6.4149 3.33021,12.9204 5.11103,19.3855 3.97411,14.3783 8.05891,28.7364 11.9123,43.1449 0.2113,0.7842 -1.20733,2.5238 -2.23356,2.9661 -1.28781,0.5531 -3.02839,-0.03 -4.45706,0.3318 -22.7682,5.9424 -45.717518,10.8893 -69.200058,12.9605 -19.6694,1.7295 -39.35893,3.288 -59.0384,4.8163 -3.3100803,0.2614 -6.6503603,0.04 -10.6546603,0.04 z M -146.08927,94.857867 c -23.73407,5.892083 -46.72362,14.066583 -69.26043,23.477803 -22.69779,9.48159 -44.87241,20.07928 -66.16164,33.37163 -1.00611,-2.42319 -1.71038,-4.78605 -2.90765,-6.86738 -8.88392,-15.52449 -17.90871,-30.96855 -26.78258,-46.503103 -1.318,-2.30255 -2.43478,-2.6444 -4.70858,-1.21662 -7.44519,4.675443 -15.18217,8.908493 -22.50662,13.764913 -29.69024,19.72737 -58.14296,41.07356 -84.181,65.49649 -5.66439,5.30889 -11.25835,10.70829 -16.2084,15.4139 44.91263,44.8843 89.39264,89.34631 134.08393,133.99934 1.48904,-1.36743 3.622,-3.43871 5.8656,-5.37927 12.60654,-10.86916 24.65971,-22.47231 38.0007,-32.35611 16.83217,-12.47792 33.87562,-24.8754 52.95143,-33.92464 17.48615,-8.29517 34.82138,-16.94223 52.63955,-24.45311 12.13365,-5.11785 24.95145,-8.6169 37.50767,-12.69912 2.52532,-0.82449 4.23572,-1.63892 3.38053,-4.78604 -5.68452,-20.91384 -11.28854,-41.85784 -16.94286,-62.78173 -4.85949,-17.9879 -9.75923,-35.9758 -14.78977,-54.546883 z M -159.91319,1236.9643 c 8.24002,1.8703 16.67121,4.1124 25.23318,5.671 22.24503,4.0621 44.439762,8.7978 66.865902,11.4222 20.30325,2.3729 40.89827,2.2221 61.3524197,3.3683 4.04457,0.2212 5.15128,-1.1162 5.11105,-5.0876 -0.20122,-18.4305 -0.11068,-36.8607 -0.11068,-55.2911 0,-1.2769 0.14085,-2.5639 0.17103,-3.0466 49.4200003,-0.161 97.4918303,-6.3344 144.8593583,-19.0234 -5.52353,-20.5319 -10.73516,-39.9374 -16.00716,-59.5242 -42.598588,11.5127 -85.237428,16.6206 -128.9729283,16.5803 v -126.971 c -9.5077097,-0.7039 -18.5526197,-1.5485 -27.6277097,-2.021 -20.57489,-1.0759 -40.73729,-4.73592 -60.65822,-9.72312 -3.85339,-0.9651 -5.06072,0.2515 -5.90585,3.5695 -1.98203,7.83282 -4.12505,15.62512 -6.237872,23.41752 -3.75278,13.8252 -7.6263,27.6304 -11.28852,41.4758 -5.9461,22.4521 -11.67085,44.9647 -17.65719,67.417 -5.77506,21.6377 -11.78151,43.205 -17.63704,64.8126 -3.82323,14.1169 -7.55588,28.2639 -11.47969,42.9538 z M 602.7566,794.04351 C 630.5956,685.40217 630.4849,577.55516 601.1668,469.7685 587.2725,418.67038 567.0397,370.23675 540.71,324.30675 c -17.8686,10.3262 -35.234,20.36083 -53.0521,30.65686 24.7301,43.42638 43.2123,88.86369 56.1308,136.67391 -3.0787,0.54297 -5.5438,0.79434 -7.9183,1.41773 -16.6509,4.3537 -33.2617,8.90848 -49.9631,13.07113 -3.4108,0.84461 -4.0245,2.25227 -3.29,5.20835 1.4789,5.94235 3.2598,11.83443 4.2355,17.8572 3.3404,20.60215 6.8619,41.18418 9.3671,61.89692 1.5895,13.19179 1.499,26.59473 2.1831,39.89714 0.03,0.61334 0.3422,1.21664 0.483,1.69925 0.5635,0.15084 0.8753,0.30164 1.1974,0.30164 19.8805,-0.24131 39.7713,-0.53289 59.6521,-0.60328 0.9055,0 2.656,1.95062 2.6056,2.90581 -1.0462,18.74202 -2.1127,37.48403 -3.6018,56.19588 -0.8249,10.40664 -1.8814,20.85351 -3.7728,31.10933 -3.2498,17.55555 -7.3044,34.96029 -10.7956,52.47563 -0.2112,1.07584 1.2274,3.38843 2.294,3.69007 18.3413,5.11786 36.743,10.01452 56.2917,15.27314 z M -1.4210683,11.474024 C -112.15327,11.815884 -214.42409,39.949007 -309.94393,93.681467 c 0.39238,1.23672 0.46281,1.73948 0.70427,2.15171 8.86382,15.313363 17.90872,30.516103 26.52099,45.970213 2.13295,3.83086 3.2598,5.61053 8.06899,3.07675 16.23858,-8.53647 32.63813,-16.82155 49.27914,-24.54358 23.74414,-11.00993 48.51451,-19.33524 73.6672,-26.534423 2.59575,-0.74406 5.14121,-1.65903 7.71684,-2.50364 0.7747,2.77511 1.5997,5.55021 2.33417,8.33537 3.89363,14.810623 7.78726,29.631283 11.64065,44.462003 2.45491,9.46149 2.42472,9.47155 12.20408,6.77689 0.63387,-0.17093 1.30794,-0.23125 1.95186,-0.37203 20.182502,-4.51456 40.354972,-8.96882 61.110982,-10.14523 19.39773,-1.09595 38.77537,-3.45882 58.1630597,-3.5091 17.5465103,-0.0402 35.1634603,1.81992 52.6496103,3.7102 15.93674,1.72942 31.78294,4.40397 47.588888,7.09864 8.0086,1.36745 15.85625,3.70015 24.04595,5.66082 5.10098,-19.26487 9.95041,-37.92643 15.06143,-56.527673 0.86524,-3.13708 -0.55335,-3.11697 -2.74667,-3.72025 -29.54938,-8.21471 -59.742658,-12.94042 -90.197518,-15.83619 -16.81207,-1.59871 -33.77504,-1.71936 -51.2310103,-2.54386 V 11.463969 Z M -375.07933,416.35778 c 0.50305,-0.76416 0.8753,-1.31717 1.24757,-1.88023 8.41106,-12.53824 16.17821,-25.58928 25.40421,-37.49408 11.88213,-15.33346 24.79048,-29.89271 37.61836,-44.47206 2.69637,-3.05664 2.77687,-4.47435 0,-7.2193 -16.05748,-15.82614 -31.95397,-31.80311 -47.90077,-47.73983 -14.71936,-14.70003 -29.43871,-29.4101 -44.14801,-44.12016 -11.73121,-11.73387 -23.5429,-23.38731 -35.13325,-35.26193 -2.77686,-2.84548 -4.56773,-3.04657 -7.25405,-0.0302 -7.53574,8.43592 -15.72545,16.31882 -22.84869,25.07648 -15.69528,19.30508 -31.52135,38.54984 -46.06966,58.69952 -10.70499,14.82066 -19.97124,30.74734 -28.94572,46.71426 -8.57203,15.26307 -16.33918,31.01883 -23.74414,46.88518 -13.8541,29.71173 -25.04201,60.42892 -33.66436,92.09127 -1.06647,3.91128 0,4.80615 3.47107,5.69096 16.51023,4.21293 33.02046,8.45603 49.37977,13.23203 4.51742,1.31717 5.83542,0.14076 7.01257,-3.84091 3.52137,-11.88469 7.01256,-23.78948 11.10742,-35.48314 9.15558,-26.11213 20.48435,-51.28916 33.25184,-75.83276 3.45097,-6.6361 7.1635,-13.14151 10.43334,-19.12408 36.83361,21.30597 73.5867,42.57171 110.7825,64.08883 z m -2.19332,2.4433 c -2.67625,-1.53838 -4.97018,-2.85555 -7.2641,-4.16265 -17.00322,-9.74304 -34.01649,-19.46595 -50.99957,-29.23915 -15.13186,-8.71744 -30.32408,-17.34441 -45.27484,-26.3635 -3.47108,-2.09138 -4.68846,-1.468 -6.4894,1.71936 -21.81241,38.7308 -38.65465,79.51277 -50.75812,122.25542 -0.84514,2.98627 -1.50916,6.03285 -2.26373,9.04928 -3.09883,-0.9351 -6.16745,-1.96069 -9.28639,-2.78518 -16.04741,-4.2632 -32.13507,-8.37558 -48.13218,-12.78961 -3.46101,-0.95519 -4.80919,-0.23125 -5.52353,3.21753 -3.27991,15.73563 -7.09306,31.36068 -10.03089,47.15666 -6.08695,32.6477 -9.65863,65.55682 -9.03484,98.82792 0.13079,7.21929 0.0201,7.21929 7.5458,7.22935 20.53465,0 41.06931,0 61.60397,0 16.59071,0 33.19148,-0.0301 49.78219,0.0201 2.93784,0 4.97018,-0.0804 5.16135,-4.11239 0.70426,-14.61958 1.09665,-29.30952 2.98813,-43.78834 2.82715,-21.71821 6.76104,-43.29565 10.3629,-64.90327 0.94574,-5.6407 2.41466,-11.20095 3.68236,-16.99248 3.461,1.16635 6.52963,2.39303 9.69888,3.24767 15.24253,4.10232 30.51523,8.09406 45.76782,12.1461 7.11317,1.89029 6.47933,1.67914 8.98454,-5.30888 7.44518,-20.75296 15.05136,-41.46569 23.36181,-61.88684 4.48724,-11.01999 10.544,-21.40653 16.1279,-32.53711 z M 375.175,852.54192 c -38.99671,66.20036 -91.27406,118.08266 -156.78171,156.82368 11.85194,20.6121 23.35174,40.7015 34.92198,60.7406 10.87602,18.8325 21.85266,37.6147 32.7488,56.4372 8.02875,13.8654 16.32912,27.5801 23.81456,41.7372 2.62595,4.977 4.77903,4.7357 8.56198,2.1617 18.79418,-12.7595 37.80958,-25.1972 56.39229,-38.2381 22.1646,-15.5548 42.2062,-33.6834 61.6845,-52.4556 3.0787,-2.9661 2.9077,-4.7357 -0.04,-7.6415 -16.3794,-16.1177 -32.5577,-32.4367 -48.8265,-48.6649 -12.6066,-12.5784 -25.23311,-25.14692 -37.28631,-37.14232 13.6731,-15.9869 28.23151,-31.7528 41.32081,-48.6547 13.1801,-17.0126 24.9012,-35.15138 37.8499,-53.65207 -18.6835,-10.80884 -36.23,-20.96411 -54.3701,-31.45119 z M 114.40202,215.20289 c -2.08264,7.24946 -4.23572,14.11684 -6.03665,21.07473 -3.55156,13.73475 -6.86165,27.52983 -10.473578,41.24449 -0.27164,1.01552 -2.39454,2.4634 -3.32014,2.25225 -9.6184,-2.25225 -19.05568,-5.39938 -28.7445,-7.12881 -11.88213,-2.12154 -23.95542,-3.30799 -35.9784,-4.53467 -7.77722,-0.79432 -15.70534,-0.43235 -23.4221903,-1.57858 -4.22565,-0.62341 -4.9903,0.40217 -4.98022,4.1023 0.0805,17.58574 0.1509,35.18151 -0.0503,52.76723 -0.0503,4.11238 1.45887,4.91677 5.26195,5.13796 13.7534903,0.81443 27.5874703,1.34733 41.1799803,3.35829 15.484,2.28241 30.63597,6.33447 45.60685,11.23112 18.693468,6.11328 36.561948,13.89563 53.716078,23.3873 3.3805,1.87018 5.56377,1.51826 7.27415,-1.92045 0.58354,-1.18647 1.33812,-2.29248 1.99209,-3.43872 9.85986,-17.17347 19.67946,-34.35701 29.56949,-51.51037 10.69493,-18.55097 21.44017,-37.07178 32.19545,-55.58254 6.07689,-10.45691 12.27452,-20.84344 18.33127,-31.32049 3.43083,-5.93226 6.66045,-11.98522 10.12145,-18.23925 -3.96406,-1.99085 -7.17354,-3.70015 -10.45346,-5.23852 -19.62916,-9.22019 -38.94641,-19.21459 -59.01827,-27.3187 -15.61479,-6.30432 -32.15519,-10.33626 -48.33338,-15.19269 -8.67265,-2.60417 -17.3453,-5.48989 -26.21917,-7.09864 -16.077598,-2.91586 -32.265858,-5.3994 -48.494378,-7.27961 -15.80595,-1.82997 -31.73264,-2.61424 -47.5989403,-3.98168 -4.0848,-0.35191 -5.16134,1.27695 -5.1211,5.17819 0.1811,16.24842 0.0604,32.49687 0.0906,48.74532 0.0201,9.10958 -1.16710005,8.25493 8.22995,8.49623 9.8296803,0.25137 19.6895303,0.44242 29.4487803,1.49815 13.1297,1.42778 26.20909,3.38845 39.22813,5.63067 12.13366,2.09137 24.156638,4.85642 35.998518,7.2796 z M 434.9278,633.04722 c -0.2515,1.99083 -0.6842,4.31347 -0.825,6.64616 -0.7445,12.61869 -0.986,25.28765 -2.2337,37.85607 -1.2677,12.80972 -3.2496,25.56916 -5.3927,38.27834 -1.3481,7.95329 -3.6823,15.73565 -5.3524,23.63866 -0.7547,3.56943 -0.7346,6.21382 4.3766,7.4606 19.941,4.87655 39.701,10.48709 59.5313,15.79599 17.3956,4.65533 34.8012,9.2805 52.1869,13.94591 2.5454,0.68372 4.0545,0.22121 4.6582,-2.71478 3.5717,-17.27402 7.6564,-34.44749 10.8156,-51.80197 2.0726,-11.37189 3.2197,-22.95493 4.1653,-34.48771 1.2878,-15.72559 1.9518,-31.51151 2.9983,-47.25721 0.2515,-3.7303 -1.5093,-4.51459 -4.7992,-4.46431 -8.7129,0.14078 -17.4257,0.0402 -26.1387,0.0402 -11.0069,0 -22.0136,0 -32.8595,0 -0.2917,-0.72395 -0.5231,-1.02558 -0.5231,-1.31717 0.4628,-21.83888 -0.5333,-43.61741 -4.1954,-65.14458 -3.29,-19.34529 -7.3145,-38.55987 -11.0271,-57.8348 -0.6136,-3.16724 -2.2134,-3.68003 -5.3927,-2.7952 -19.8907,5.52004 -39.8519,10.7686 -59.7829,16.13783 -17.8484,4.80616 -35.6765,9.72292 -53.56521,14.37826 -3.0384,0.79432 -3.149,2.06122 -2.5455,4.62517 2.2839,9.80337 5.1413,19.55645 6.36871,29.50058 2.2839,18.42026 3.6623,36.96117 5.2017,55.47192 0.2414,2.94605 0.9557,4.11238 4.0747,4.10233 19.8605,-0.1106 39.7312,-0.0503 60.2558,-0.0503 z M 310.8445,93.721707 c -9.46748,-4.8665 -18.38158,-9.25036 -27.1146,-13.96603 C 258.62753,66.191847 232.30776,55.413187 205.44468,46.022057 171.22695,34.056936 136.21443,24.987576 100.32658,19.628396 82.991352,17.044336 65.615872,14.490445 48.169972,12.931959 34.557332,11.715336 20.793782,12.208018 7.1107217,11.634898 c -4.34638,-0.180985 -5.79519,1.005473 -5.72476,5.540158 0.26159,17.08297 0.0906,34.176011 0.11068,51.258991 0,1.44788 0.19116,2.89576 0.3119,4.62518 49.4904203,-0.24131 97.6729103,7.07853 145.7648383,19.2347 -0.69422,1.55847 -1.69026,3.19739 -2.16314,4.97708 -4.61803,17.364523 -9.0952,34.759183 -13.76354,52.103583 -0.99605,3.7102 -0.0201,5.13798 3.75279,6.28421 13.27055,4.01184 26.76244,7.63155 39.48971,13.01083 22.05387,9.32072 43.68517,19.68714 65.32656,29.95302 9.26624,4.39391 6.70067,5.64071 12.48579,-4.22298 11.35895,-19.34529 22.38589,-38.89169 33.59393,-58.32746 8.02874,-13.92581 16.11784,-27.81139 24.55908,-42.360583 z M -431.85397,881.91177 c -43.85623,-76.18466 -64.96436,-158.34184 -66.55401,-245.56659 h -123.72104 c -2.0424,53.79278 6.76104,105.90643 19.57885,157.76872 21.52064,-5.81164 41.99492,-11.33168 62.48933,-16.86177 2.57564,25.34796 43.70532,124.17587 55.96977,134.8741 17.2145,-9.96423 34.35857,-19.87819 52.22704,-30.21446 z M -1.4411983,202.50378 c 0,-19.74747 -0.13079,-39.14306 0.1006,-58.53863 0.0503,-4.47435 -1.33812,-6.00266 -5.7348,-5.60047 -8.7531397,0.80438 -17.5364497,1.20655 -26.2895797,1.99082 -14.19619,1.28702 -28.49298,2.07128 -42.54829,4.32354 -15.96693,2.55392 -31.722572,6.42498 -47.518472,9.95418 -1.07653,0.24131 -2.61588,2.56396 -2.41466,3.63982 0.80489,4.35369 2.25369,8.58673 3.37046,12.8801 4.1653,15.95686 8.21991,31.95393 12.47574,47.89066 5.8153,21.79866 11.791572,43.54702 17.657192,65.32557 3.8232,14.17717 7.52567,28.3845 11.37907,42.5516 1.05642,3.89119 2.43478,7.69188 3.61193,11.3518 23.64353,-6.40487 46.97516,-9.09953 70.5583197,-9.75309 4.10492,-0.1106 5.51347,-1.15629 5.44305,-5.39939 -0.23142,-15.07204 -0.0906,-30.14408 -0.0906,-45.21611 v -14.7905 c 10.71502,1.02559 20.8968503,2.30253 31.1189003,2.90581 20.55477,1.20656 40.76747,4.43415 60.65822,9.68271 2.81709,0.74404 4.27595,0.48261 5.0909,-2.66452 3.12899,-12.08576 6.479328,-24.12128 9.739118,-36.1769 1.74057,-6.43503 3.48113,-12.88011 5.29214,-19.5665 -36.944278,-10.105 -73.868418,-14.3682 -111.8992783,-14.7905 z M -151.51218,899.84941 c -31.79301,55.05977 -63.15338,109.37549 -94.71496,164.02279 2.05245,1.3172 3.85339,2.7852 5.89578,3.7403 21.91303,10.2056 43.64495,20.8436 65.87993,30.2748 12.88823,5.4598 26.60147,8.9588 39.95252,13.3226 2.44484,0.8043 5.04059,1.5987 5.9964,-1.9305 3.17929,-11.7639 6.26804,-23.5582 9.39703,-35.3424 3.75279,-14.1268 7.6263,-28.2135 11.26841,-42.3707 3.41071,-13.262 6.73086,-26.5645 9.799492,-39.90722 0.76464,-3.318 2.19331,-3.1069 4.69852,-2.3729 6.93209,2.031 13.82392,4.4141 20.91698,5.6708 13.35105,2.363 26.79265,4.3437 40.26442,5.89232 10.00071,1.1462 20.11209,1.3675 30.3643297,2.0109 V 940.77228 C -55.187468,940.08848 -104.85899,926.63528 -151.51218,899.85946 Z M 304.51609,633.06733 C 303.2987,571.93458 286.00371,516.54309 252.53051,466.01807 226.76409,427.11634 193.46194,396.36898 153.48928,372.4689 c -0.6942,0.92503 -1.14695,1.40765 -1.46891,1.96067 -11.2684,19.42573 -22.5368,38.85146 -33.78508,58.2973 -7.64643,13.20186 -15.3029,26.39367 -22.878888,39.62568 -5.23175,9.1297 -4.8595,8.70741 3.78297,14.68997 9.497658,6.58584 19.307198,13.19181 27.205138,21.48695 9.29644,9.76314 16.88248,21.19537 24.77036,32.22539 2.16313,3.02648 3.60187,3.01643 6.32842,1.39763 10.55407,-6.23395 21.17856,-12.33715 31.77288,-18.51077 6.76103,-3.94145 13.52208,-7.90302 20.17245,-11.7942 4.35645,9.04926 8.93423,17.64607 12.67695,26.57465 4.69852,11.21103 10.19187,22.40193 12.67696,34.15591 3.87352,18.31972 5.54365,37.10195 8.03881,55.7032 0.34206,2.58405 0.0704,4.86649 3.93387,4.83631 18.92489,-0.15081 37.85983,-0.0704 57.81094,-0.0704 z m -724.6288,111.94933 c -9.91014,-37.17234 -13.51202,-74.74684 -15.01111,-112.91458 3.53143,0.32175 6.33848,0.78427 9.14553,0.79431 16.42971,0.0603 32.84939,-0.15082 49.27913,0.12068 4.73876,0.0803 6.00645,-1.65905 6.17749,-6.07307 0.4125,-10.46698 0.67409,-20.99428 2.11283,-31.34058 2.52532,-18.20912 5.88573,-36.29757 9.03484,-55.31106 -39.08727,-10.45692 -79.01967,-21.13504 -118.83134,-31.783 -0.5936,1.01552 -0.9558,1.41772 -1.07654,1.87018 -7.15342,26.52436 -11.6809,53.55147 -14.06538,80.87018 -1.47898,16.98243 -2.25369,34.11569 -1.9116,51.15844 0.33201,17.1031 1.5997,34.28663 3.98418,51.22884 2.90765,20.67252 7.46532,41.11378 11.15774,61.68576 0.73445,4.09227 2.31403,5.06758 6.43908,3.9314 17.41573,-4.82627 34.93204,-9.31069 53.56515,-14.21739 z M 56.007542,534.89298 C 87.669752,480.05449 119.14077,425.5679 150.67219,370.97074 103.82783,344.5268 54.629172,331.06353 1.4865817,330.2692 c 0,2.63435 0,4.45424 0,6.27417 0,21.83885 0,43.67772 0,65.51659 0,21.83886 0,43.69784 0,65.54678 0,15.74569 0.14085,31.4914 -0.0906,47.23709 -0.0604,4.41403 1.28782,5.75131 5.7147,5.72115 12.1839503,-0.0804 23.8045003,2.72483 34.8414903,7.94323 4.59792,2.18187 9.26626,4.22298 14.05533,6.38477 z M 154.32435,370.41774 c 1.82105,0.87475 2.75674,1.1965 3.56162,1.73945 18.8947,12.60865 37.53787,25.54908 53.84688,41.49587 2.60581,2.5539 4.70858,3.12703 7.56593,0.25137 17.51633,-17.66617 35.13327,-35.23177 52.74015,-52.80743 12.79769,-12.7896 25.64568,-25.539 38.42324,-38.34874 4.90982,-4.92681 9.65869,-10.0145 14.57852,-14.93126 7.2842,-7.26958 14.6792,-14.42855 21.9633,-21.6981 1.5695,-1.55848 2.6561,-2.88572 0.2012,-5.27874 -17.3251,-16.91205 -35.59605,-32.70803 -55.34594,-46.70421 -13.63276,-9.66258 -27.7082,-18.7018 -42.32695,-28.52525 -31.97409,55.33115 -63.45519,109.81773 -95.218,164.80704 z M -77.140728,928.21388 c 18.14012,5.2686 36.37079,8.094 54.84292,9.3911 7.57599,0.5328 15.2224097,0.4625 22.81850965,0.2916 12.25440035,-0.2716 24.65971035,0.2513 36.70281035,-1.5685 16.06754,-2.4333 31.91374,-6.5056 47.70962,-10.447 8.6324,-2.1516 17.194368,-4.967 25.374038,-8.456 12.30468,-5.24856 24.25723,-11.32163 36.34058,-17.08298 3.4107,-1.62887 3.62199,-3.53926 1.5293,-6.91766 -5.76501,-9.2805 -10.99676,-18.89284 -16.46998,-28.35434 -3.88359,-6.7065 -7.8074,-13.38283 -11.32877,-19.39556 -19.81026,8.28509 -39.097338,16.34898 -58.505148,24.4732 -5.87567,-21.80869 -11.45956,-42.54155 -16.99316,-63.0934 -30.2939,8.03372 -59.66218,8.06388 -89.50333,0 -10.7754,40.13847 -21.55081,80.30709 -32.51739,121.16954 z M 373.5652,851.70737 c -17.68731,-10.26588 -34.41881,-20.03907 -51.28129,-29.57095 -0.8552,-0.48262 -3.53138,0.72395 -4.31615,1.87018 -5.09093,7.38017 -9.59827,15.16254 -14.8401,22.42206 -16.02729,22.19077 -33.14118,43.47663 -54.03803,61.41425 -6.44917,5.53011 -12.49587,11.58307 -19.33739,16.57037 -17.0334,12.4376 -33.69454,25.4986 -52.90114,34.6484 -13.14982,6.2641 -26.0783,13.0914 -39.50984,18.6817 -12.74737,5.2989 -26.03806,9.3207 -39.429348,14.0163 0.19117,1.3775 0.2616,2.8655 0.6238,4.2733 4.205528,16.14782 8.451288,32.27562 12.717188,48.41352 1.72044,6.4853 1.97197,6.5758 8.43119,4.6655 2.69636,-0.7945 5.44304,-1.4077 8.11928,-2.2623 31.99421,-10.1253 62.43903,-23.7694 91.37467,-40.7116 26.73229,-15.65532 51.50265,-34.03542 74.22056,-55.12032 4.37656,-4.0619 8.24001,-8.6771 12.47572,-12.9001 4.94,-4.9266 10.54402,-9.2805 14.9407,-14.6296 11.16787,-13.60405 22.10417,-27.41924 32.58787,-41.55619 7.0728,-9.53188 13.22021,-19.73743 20.16231,-30.23457 z M -260.44344,371.52376 c 7.51562,-6.72661 14.53824,-13.95598 22.49656,-19.92848 17.12394,-12.83988 34.75095,-25.00611 52.12643,-37.51419 2.17319,-1.55848 3.32016,-0.84459 4.12504,1.28702 0.39238,1.05574 0.37226,2.31256 0.91556,3.25772 8.96442,15.47422 18.07976,30.86802 26.92344,46.41262 1.85123,3.24768 3.70247,3.16725 6.44915,1.66909 20.102,-11.00994 40.97874,-20.17984 63.153352,-26.18251 3.20949,-0.8647 3.62199,-2.35282 2.77686,-5.43961 -5.71469,-20.83339 -11.1879,-41.72713 -16.81206,-62.59069 -4.527482,-16.76122 -9.316552,-33.46213 -13.652882,-50.27363 -0.91556,-3.55938 -2.43477,-3.98167 -5.26194,-2.94603 -20.16239,7.38017 -40.58637,14.147 -60.38656,22.41198 -13.22026,5.52004 -25.79661,12.75945 -38.19183,20.01898 -13.37119,7.83263 -26.45058,16.21826 -39.1879,25.04632 -9.64857,6.68638 -18.75385,14.21738 -27.73837,21.79864 -7.31441,6.17362 -14.08551,12.98066 -21.25906,19.65699 14.85015,14.78045 29.15699,29.02801 43.52421,43.31578 z m -46.64315,-40.50046 c -6.08695,6.85733 -12.82786,14.61958 -19.74988,22.23101 -19.49837,21.42664 -35.52567,45.36693 -49.65142,70.47358 -16.67119,29.63128 -29.73048,60.90149 -39.06715,93.65979 -0.83507,2.92593 -0.51311,4.34365 3.01832,5.23851 15.68522,3.97163 31.28995,8.29516 46.86449,12.65891 8.51167,2.38297 8.64246,2.59412 10.99675,-5.59043 6.78117,-23.61855 16.55047,-46.01043 27.62772,-67.86942 2.39453,-4.73575 4.96011,-9.39111 7.53575,-14.26765 1.82105,1.31717 3.30002,2.58406 4.95005,3.53927 14.60867,8.47613 29.2576,16.91205 43.89647,25.3379 6.54975,3.77054 6.25798,3.53927 10.5943,-2.58406 9.02479,-12.71922 18.24074,-25.29768 27.70821,-37.69517 4.59791,-6.02278 9.92021,-11.48251 14.1358,-16.29872 -29.76065,-29.76198 -59.06857,-59.06147 -88.84935,-88.84358 z m 492.26827,620.94978 c 55.6981,-32.8789 99.81593,-76.61698 132.3635,-132.23973 -0.76464,-0.61335 -1.34819,-1.20656 -2.04241,-1.60877 -23.90511,-13.80515 -47.79011,-27.66056 -71.74552,-41.37519 -12.23427,-6.99809 -24.69994,-13.5739 -36.89396,-20.6323 -16.90261,-9.78326 -33.66436,-19.83799 -50.46635,-29.80223 -2.14301,-1.26689 -3.27991,-0.80437 -4.78906,1.29708 -7.74704,10.77865 -15.73553,21.37635 -23.00968,31.1797 29.66004,29.9832 59.62191,60.26803 90.65027,91.62873 -21.44015,16.5903 -42.45773,32.84878 -64.07898,49.57987 9.49764,16.44944 19.62916,33.99514 30.00212,51.95274 z m -33.27199,-51.81196 c -5.39273,2.76504 -9.96046,5.08769 -14.51812,7.45053 -20.20264,10.46693 -41.411378,18.26943 -63.414948,23.97053 -22.41608,5.8116 -45.26478,8.4661 -68.3650003,9.009 -4.00431,0.091 -4.16528,2.0512 -4.15523,5.0675 0.0704,17.7568 0.0201,35.5134 0.0604,53.27 0,1.94072 0.51311,3.89122 0.50305,5.83192 -0.14086,19.5663 -0.39238,39.1229 -0.37226,58.6793 0,0.9953 2.19333,2.8556 3.35034,2.8455 8.8336303,-0.1208 17.7074903,-0.2011 26.4908103,-1.0658 13.34099,-1.3072 26.7021,-2.7952 39.91229,-5.0273 12.01292,-2.0312 23.86486,-5.0878 35.736928,-7.8931 1.05641,-0.2513 2.69638,-2.1818 2.50521,-2.9762 -1.95185,-8.3353 -4.17534,-16.6205 -6.41897,-24.8854 -3.14911,-11.563 -6.388778,-23.1058 -9.588198,-34.66872 4.33632,-1.2368 8.803438,-2.564 13.300738,-3.7907 25.27342,-6.8573 48.63524,-18.2492 71.75558,-30.1943 3.06863,-1.5887 3.57168,-3.5392 1.81099,-6.425 -2.67625,-4.3838 -5.24183,-8.828 -7.81745,-13.2722 -6.89183,-11.8847 -13.75349,-23.77945 -20.77613,-35.92556 z M -1.4512583,329.87706 c -12.5461497,0.9351 -24.5791997,0.98537 -36.3104297,2.89577 -15.72545,2.56397 -31.38048,5.9524 -46.76387,10.07484 -21.651422,5.80158 -41.954672,15.1022 -61.674372,25.76022 -3.82323,2.07127 -3.6723,3.81074 -1.87137,6.85731 4.97017,8.39569 9.85985,16.85173 14.7596,25.28765 4.53754,7.80247 9.06502,15.60493 13.73335,23.66881 19.04562,-10.77865 38.594292,-18.79227 58.464912,-24.42292 5.82536,21.87909 11.51994,43.29566 16.82212,63.19396 -14.43764,5.99262 -28.21126,11.71376 -42.66902,17.72649 10.78547,18.67163 20.9371,36.22718 31.21951,54.014 2.9479,-1.39761 5.32233,-2.50363 7.67661,-3.64987 12.90836,-6.22388 26.26946,-10.91944 40.7976497,-10.70829 4.73877,0.0704 5.92597,-1.42777 5.90585,-6.00267 -0.16096,-39.02239 -0.0906,-78.05485 -0.0906,-117.08731 0,-22.10029 0,-44.20056 0,-67.60799 z M 210.70662,754.20667 c 0.84514,0.52285 1.67013,1.0457 2.51527,1.53839 18.7639,10.79877 37.54793,21.55733 56.29172,32.38627 19.28708,11.14064 38.5339,22.35167 57.82098,33.50236 14.3269,8.28509 28.7243,16.42942 42.96081,24.86533 3.1693,1.88024 4.7589,1.72942 6.6102,-1.61881 16.3693,-29.49051 29.3581,-60.34846 38.5842,-92.81518 1.2375,-4.36375 -0.6239,-5.27873 -3.8534,-6.1535 -22.3357,-6.07304 -44.6411,-12.24666 -66.98671,-18.25938 -19.0456,-5.12791 -38.15158,-10.06478 -57.21732,-15.12231 -16.13796,-4.28331 -32.33629,-8.39569 -48.36358,-13.07115 -4.91986,-1.43782 -5.96623,0.36197 -7.33452,4.44419 -3.11893,9.38106 -6.67049,18.63141 -10.47359,27.7611 -3.16923,7.58128 -6.95219,14.90111 -10.56413,22.54269 z m -427.7164,253.10783 c 1.70032,-2.8355 3.00825,-4.937 4.23571,-7.0786 10.08119,-17.46522 20.13221,-34.96032 30.23353,-52.41542 10.97663,-18.953 22.03376,-37.85601 32.98021,-56.82929 8.19977,-14.21737 15.97698,-28.67608 24.55907,-42.65214 2.70643,-4.40397 1.57959,-6.05294 -2.0424,-8.35549 -14.16598,-8.98892 -27.83899,-18.66158 -39.63057,-30.72724 -2.636,-2.69466 -4.45706,-2.03106 -6.93207,0.47258 -15.04131,15.21278 -30.26373,30.2446 -45.39558,45.36693 -15.54437,15.54459 -31.04847,31.13947 -46.57272,46.71426 -8.00861,8.03373 -16.02729,16.03729 -24.01579,24.08119 -4.74882,4.776 -9.43728,9.6022 -14.40744,14.6597 26.31977,26.2127 55.20511,48.0012 86.98805,66.75342 z M -432.1558,636.12396 c 1.22745,36.93101 4.95005,72.9571 14.81995,108.33969 2.33417,-0.56306 4.07474,-0.94514 5.78512,-1.40767 19.88068,-5.36922 39.77143,-10.72838 59.65211,-16.14788 18.62305,-5.07765 37.21592,-10.3061 55.85909,-15.31336 19.09592,-5.11784 38.21196,-10.17538 57.39844,-14.94132 3.70247,-0.91497 3.70247,-2.07126 3.16923,-5.4396 -2.43478,-15.5044 -4.35645,-31.08924 -6.48939,-46.63383 -0.39238,-2.85555 -0.85519,-5.70104 -1.2677,-8.44597 H -432.16587 Z M 218.63474,419.44458 c 56.6841,59.60442 86.67616,130.23889 88.57771,212.70777 H 368.0015 C 365.4259,532.63064 329.22609,447.9799 261.75651,376.56116 c -14.60867,14.52909 -28.664,28.50515 -43.12177,42.87337 z M 115.36788,632.59476 h 125.07927 c -0.53323,-41.93829 -11.69096,-80.41771 -32.26586,-116.70523 -19.0255,11.07026 -37.36684,21.72828 -55.79872,32.45666 -1.20733,-2.32263 -2.31405,-4.84638 -3.76284,-7.16902 -7.02264,-11.23113 -15.23245,-21.39646 -24.61946,-30.86802 -9.52782,-9.63242 -20.21268,-17.48515 -31.299998,-25.01615 -2.51526,-1.7093 -4.03448,-1.47804 -5.51346,1.22667 -2.62594,4.81622 -5.47322,9.50173 -8.20984,14.2576 -6.84153,11.89474 -13.66293,23.79954 -20.57489,35.84511 35.45522,22.25111 53.192898,54.567 56.955738,95.97238 z M -211.19448,514.43161 c -0.39239,-0.24133 -1.19727,-0.78428 -2.03234,-1.27696 -23.00968,-13.34264 -46.02942,-26.66514 -69.03909,-40.00777 -10.76536,-6.23393 -21.49045,-12.53824 -32.30613,-18.69174 -2.00214,-1.13618 -4.29608,-3.01641 -6.06682,0.83455 -7.88788,17.13326 -16.52028,33.95481 -23.73407,51.3696 -4.56773,11.03004 -6.67049,23.05549 -10.63456,34.36706 -6.19762,17.64604 -8.53179,35.96575 -10.6446,54.34581 -1.30796,11.36182 -1.93175,22.79405 -2.96803,34.18607 -0.25153,2.74494 0.91555,3.54931 3.43082,3.54931 18.44196,-0.0402 36.88391,0.0402 55.32585,-0.18098 1.18722,-0.01 3.22961,-2.1316 3.38053,-3.44876 0.95579,-8.23484 1.07653,-16.5702 2.24362,-24.76481 1.99209,-14.04645 4.55767,-28.02252 6.87171,-42.02876 0.47287,-2.85554 0.90549,-5.71108 1.35825,-8.57667 2.88753,0.80437 5.76499,1.63892 8.67264,2.40307 12.6166,3.33816 25.22312,6.68639 37.84976,9.95419 5.34244,1.37749 10.73516,2.56394 14.72942,3.51914 8.0891,-19.07381 15.68521,-36.99135 23.56304,-55.55235 z m -50.2752,379.59611 c 2.80704,-2.65445 4.54761,-4.22298 6.20769,-5.87195 14.68916,-14.67991 29.36828,-29.37992 44.0474,-44.05982 12.03302,-12.04557 24.02584,-24.12129 36.13937,-36.08641 2.53539,-2.50364 2.73661,-4.25316 0.0503,-6.92771 -4.10491,-4.09229 -7.9885,-8.47615 -11.47969,-13.10132 -6.8717,-9.12969 -13.45165,-18.49063 -20.07183,-27.81137 -1.36831,-1.92046 -2.62595,-3.46889 -5.19152,-1.98078 -15.42362,9.01908 -30.89756,17.94768 -46.24071,27.08743 -6.02658,3.58954 -5.89578,3.81076 -9.03483,-1.99084 -0.24147,-0.44241 -0.53324,-0.85465 -0.77471,-1.29706 -9.71901,-18.26945 -18.5325,-36.96117 -24.32769,-56.88964 -2.76678,-9.53189 -2.46496,-9.61232 -11.79158,-7.67176 -0.16098,0.0301 -0.34207,0 -0.50304,0.0402 -15.62485,4.09228 -31.24971,8.15438 -46.85443,12.29693 -2.4046,0.63344 -3.38053,2.11149 -2.42473,4.79609 1.49911,4.18278 2.72655,8.46609 3.99425,12.7293 8.15954,27.36896 20.72582,52.7672 35.27413,77.17003 6.61014,11.08032 14.01508,21.75845 21.89291,31.99415 9.78942,12.71922 20.43404,24.78491 31.06859,37.57451 z M 429.8469,388.27493 c -20.4945,11.85451 -40.2242,23.27669 -59.964,34.68881 -14.26671,8.24487 -28.53321,16.46964 -42.83001,24.66425 -5.64427,3.23763 -5.67441,3.41861 -2.6058,9.01909 12.3953,22.60301 22.7279,46.09086 29.9921,70.87576 2.7265,9.30063 2.7365,9.48161 11.86201,7.14892 19.4683,-4.98714 38.8859,-10.14522 58.314,-15.26307 7.3747,-1.94058 14.7394,-3.95151 22.1042,-5.94234 10.4937,-2.85555 20.9874,-5.72115 31.5615,-8.60686 -11.218,-41.12383 -27.175,-79.66361 -48.434,-116.56446 z m -637.48983,124.40715 c 3.27992,2.03104 5.48329,3.47893 7.76715,4.7961 17.48615,10.04466 35.00249,20.01895 52.45846,30.10385 15.6349,9.02915 31.18932,18.19906 46.88459,27.12767 0.975942,0.553 3.440892,0 4.225662,-0.89488 2.38447,-2.72483 4.19547,-5.95241 6.39884,-8.84816 3.15917,-4.14256 5.9461,-8.75769 9.81961,-12.10589 6.79123,-5.86191 14.28673,-10.91943 21.87277,-16.60037 -10.86596,-18.70179 -21.55082,-37.09188 -32.29604,-55.58252 3.44088,-1.61882 7.11317,-3.43871 10.8559,-5.08769 7.28421,-3.19741 14.48794,-6.62606 21.9432,-9.36097 9.52784,-3.48898 9.6184,-3.2376 7.87782,-13.19179 -0.11067,-0.65356 -0.28172,-1.287 -0.44269,-1.93051 -3.87351,-14.49892 -7.7772,-28.98778 -11.61049,-43.48669 -0.80488,-3.02648 -1.70031,-4.2632 -5.50339,-3.18736 -20.65538,5.87197 -39.741252,15.14242 -58.052412,26.11214 -19.02549,11.39199 -36.10919,25.35801 -50.71786,41.93826 -11.13762,12.6388 -20.86668,26.51431 -31.49117,40.19881 z M 428.3981,385.45961 c -20.5647,-34.76925 -44.1279,-66.39137 -71.84611,-94.86636 -4.9501,-5.0877 -5.0407,-5.07764 -10.2523,0.13071 -14.3673,14.34809 -28.69415,28.73641 -43.06136,43.09457 -12.3047,12.29692 -24.56914,24.64412 -37.0147,36.80029 -2.70643,2.6444 -2.59576,4.29337 0,6.92771 19.55873,19.87821 36.13938,42.08911 50.69776,65.81826 2.44484,3.98167 4.35644,4.16264 8.24,1.88022 23.8649,-14.00623 47.88071,-27.73094 71.84621,-41.55618 10.3226,-5.96246 20.6252,-11.96513 31.4005,-18.21918 z m -613.46396,-68.73412 c -5.33237,3.52921 -9.80955,6.67634 -14.45777,9.53187 -20.46422,12.58852 -38.73514,27.94209 -56.34203,44.17042 -2.40458,2.21205 -2.57562,3.74037 -0.18109,6.05295 13.71323,13.24208 27.35607,26.56459 40.87814,39.98766 0.80488,0.80437 1.11678,3.308 0.49299,4.12242 -1.63994,2.12156 -4.03449,3.63982 -5.93602,5.59045 -15.27272,15.62503 -27.67803,33.44201 -39.57021,51.66118 -1.53935,2.35282 -1.52929,3.94145 1.32806,5.56026 14.94069,8.51636 29.81096,17.13326 44.57057,25.95127 4.23571,2.53376 6.30828,1.71935 8.97447,-2.4031 11.25834,-17.35446 23.14046,-34.40727 38.98666,-47.90071 12.86811,-10.95965 26.69202,-20.81328 40.36502,-30.79764 3.08876,-2.25225 3.3101,-3.74035 1.55948,-6.72662 -10.51384,-17.93762 -20.92703,-35.94563 -31.34025,-53.94361 -5.89578,-10.18543 -11.71109,-20.4111 -17.57668,-30.60658 -3.79304,-6.58585 -7.62631,-13.15159 -11.74129,-20.25022 z m 393.3377,436.22435 c 1.97197,-3.58954 4.03449,-6.63611 5.41285,-9.97429 5.67445,-13.73476 11.1678,-27.54994 16.64102,-41.3752 0.87532,-2.22209 1.318,-4.61512 1.96191,-6.93776 2.31405,0.64351 4.61804,1.29705 6.9321,1.94055 18.10993,4.99721 36.21986,9.99442 54.91334,15.14242 6.88176,-24.99603 9.68881,-50.07253 10.35284,-75.50093 H 115.76026 c -1.47898,8.23482 -2.98813,16.15794 -4.21559,24.12128 -0.13078,0.82448 1.28782,2.47346 2.29393,2.78516 5.67445,1.75958 11.41932,3.29795 17.16419,4.7961 12.30469,3.21751 24.56915,6.54563 36.94426,9.45145 5.83542,1.3775 5.8958,0.96525 3.51132,6.19371 -0.6741,1.4881 -0.98598,3.14713 -1.59972,4.66539 -4.61803,11.2814 -9.2763,22.54271 -14.1358,34.3369 17.05351,9.84358 34.52959,19.93851 52.54899,30.34517 z m -565.35192,-21.43667 c -10.12143,2.61423 -19.20659,4.89665 -28.25149,7.32989 -9.07509,2.43324 -18.07975,5.13797 -27.17497,7.47067 -3.21953,0.82447 -4.03449,2.03105 -2.88752,5.26867 2.28385,6.38476 4.17534,12.91028 6.18756,19.38551 9.42723,30.31501 23.53285,58.4984 39.5199,85.76683 5.60403,9.55199 11.37908,19.13416 18.24072,27.79127 13.79374,17.41478 28.39237,34.18617 42.60866,51.25907 2.20338,2.6443 3.86345,2.1818 6.08695,-0.091 8.79338,-8.9789 17.67732,-17.8674 26.65179,-26.65514 4.51742,-4.42409 9.3065,-8.55658 14.42759,-13.24208 -46.34132,-47.38794 -77.91298,-101.91472 -95.40919,-164.27414 z M 416.687,744.71502 c 7.8879,-15.14241 17.9993,-94.25302 14.669,-108.71171 -17.144,0 -34.3686,0 -51.5932,0 -22.77821,0 -45.55641,0.0803 -68.33476,-0.0704 -3.91376,-0.0301 -5.29212,1.03564 -5.23175,5.09777 0.0805,6.13337 -0.3622,12.29691 -0.94575,18.41017 -0.81494,8.55659 -1.6802,17.13326 -3.04851,25.61945 -1.43872,8.8884 -3.49119,17.67622 -5.48328,27.50976 20.05172,5.0173 40.21414,9.80334 60.22564,15.16251 20.03151,5.36922 39.90221,11.32163 59.74261,16.98244 z m -460.686548,59.79546 c 1.6299,0.64352 2.6662,1.18647 3.77291,1.45794 15.10167,3.83086 30.5554897,5.2184 46.0294197,4.86649 15.5343003,-0.35191 30.7566903,-3.47894 45.6470803,-8.084 15.03126,-4.64528 29.06646,-11.50261 42.15592,-20.06925 9.366858,-6.13337 18.049578,-13.30239 27.024048,-20.029 2.44484,-1.82997 2.24361,-3.85096 0.21127,-5.88202 -12.90836,-12.9002 -25.836828,-25.78032 -38.714998,-38.71071 -1.78082,-1.78973 -2.76681,-1.67913 -4.84945,0.0905 -6.65037,5.66081 -13.24037,11.65341 -20.72581,16.00712 -7.20374,4.18276 -15.50411,6.45512 -23.31151,9.60226 -1.66009,0.66362 -3.26985,1.46798 -4.78908,2.16177 -5.62413,-21.10488 -11.00682,-41.30483 -16.4096,-61.60531 -1.65002,0 -2.9881503,-0.13072 -4.3061403,0.0201 -4.81927,0.54294 -9.55803,1.62887 -14.45777,0.0803 -4.2860197,-1.35739 -5.9058597,1.64899 -6.8012897,5.06757 -5.44304,20.66247 -10.79554,41.34506 -16.2587,61.99746 -4.63815,17.54551 -9.39703,35.06082 -14.2163,53.01857 z M -304.08838,633.07738 c 3.1491,0 5.95615,0.0301 8.76318,0 17.86847,-0.2413 35.73695,-0.69378 53.60541,-0.69378 19.54867,0 39.09734,0.48263 58.64602,0.60328 1.47897,0 3.90368,-0.91496 4.27595,-1.97072 0.91557,-2.58406 1.17715,-5.49993 1.18721,-8.2851 0.0402,-17.78681 4.74882,-34.56815 11.19797,-50.90707 3.32016,-8.40576 7.30434,-16.54003 11.23822,-25.34798 -17.63705,-10.16533 -35.17351,-20.27033 -52.99168,-30.53621 -10.08119,19.05371 -19.51849,37.68513 -23.30144,58.38781 -10.41322,-2.88571 -20.71576,-5.81164 -31.06861,-8.60685 -10.32266,-2.78516 -20.6755,-5.44966 -30.98811,-8.16444 -7.4955,20.71274 -10.70499,60.77077 -10.56412,75.52106 z m 428.18927,129.87691 c 0.3119,-0.44241 0.63386,-0.89487 0.94574,-1.33727 -2.28386,1.88022 -4.51742,3.8409 -6.87171,5.64069 -9.54796,7.27963 -18.522428,15.59489 -28.885338,21.4568 -11.28853,6.38475 -23.74414,10.82894 -35.95828,15.38372 -4.72871,1.75959 -5.53361,3.66999 -4.25585,8.16444 4.22566,14.93127 8.13941,29.9631 12.15378,44.9547 2.20338,8.24487 2.29394,8.56663 10.38304,6.02277 16.37942,-5.15807 32.255798,-11.52271 46.773938,-20.92386 0.97591,-0.63347 3.99424,-0.0302 4.52748,0.88479 6.62019,11.44228 12.90836,23.06554 19.38768,34.58827 3.5415,6.30432 7.29428,12.48797 10.93639,18.69174 15.85625,-8.33537 54.14871,-37.81582 59.42071,-45.03513 -29.63993,-29.62123 -59.10882,-59.05142 -88.56764,-88.49166 z m -250.80248,-2.19192 c -9.86991,-12.94044 -19.90079,-23.80961 -27.16489,-36.28752 -7.01257,-12.04556 -11.11749,-25.79038 -16.68126,-38.70064 -0.58355,-1.35739 -2.45489,-3.14714 -3.65217,-3.0868 -3.08875,0.16088 -6.15738,1.13618 -9.19582,1.96067 -19.21665,5.2184 -38.40312,10.5273 -57.62984,15.71554 -15.63492,4.21292 -31.30001,8.29514 -46.95505,12.42764 -2.99819,0.79432 -5.16131,1.73947 -3.95398,5.79153 6.42902,21.48694 15.01112,42.03882 25.74629,61.73603 2.00214,3.66996 3.77289,4.18276 7.32445,2.06121 11.81171,-7.05842 23.79445,-13.82524 35.68664,-20.72278 5.21163,-3.02649 10.40315,-6.10322 15.67514,-9.20009 0.61375,1.85007 0.81496,3.38845 1.5796,4.5749 9.52785,14.8106 19.65934,29.14866 31.75275,42.05893 3.38053,3.60964 5.33237,3.07675 8.34063,-0.17094 5.19151,-5.61052 10.69493,-10.93954 16.19834,-16.26854 7.64641,-7.41034 15.4035,-14.71007 22.91912,-21.87909 z m 2.64606,2.18187 c -14.6791,13.98614 -29.29783,27.90187 -44.63092,42.5114 8.87388,7.27961 16.802,14.39836 25.37404,20.63229 7.6766,5.59043 16.09771,10.15528 24.06608,15.37368 0.57349,0.37202 0.44269,2.51369 0,3.56942 -0.53323,1.27696 -1.92166,2.17183 -2.636,3.40856 -8.73302,15.01171 -17.37548,30.07369 -26.13866,45.06529 -1.69027,2.89575 -2.0424,4.71566 1.52929,6.70651 20.02151,11.12052 40.99886,19.89839 62.992372,26.25309 2.68631,0.7741 3.97413,-0.141 4.78907,-3.2477 5.42292,-20.70287 11.20805,-41.29494 16.78188,-61.95741 4.33632,-16.07751 8.49155,-32.2053 12.7675,-48.30291 1.84118,-6.92772 1.6299,-6.44508 -5.26194,-9.1297 -12.02299,-4.67544 -24.44841,-8.9487 -35.42505,-15.5245 -12.425432,-7.44048 -23.442312,-17.24385 -34.197592,-25.35802 z M 80.888582,712.29858 c 1.33812,1.68919 2.60581,3.62976 4.21559,5.24857 7.13331,7.20924 14.38734,14.29781 21.550828,21.46684 5.04059,5.05752 9.86991,10.33626 15.12178,15.17258 1.31801,1.21662 4.97017,2.15171 5.67446,1.41773 4.31619,-4.50454 8.44124,-9.29057 11.97267,-14.4386 4.39668,-6.39481 7.69671,-13.56382 12.32481,-19.7676 8.13941,-10.91942 12.42542,-23.46772 16.79193,-36.0663 1.01617,-2.94603 1.01617,-4.47436 -2.94789,-5.33906 -9.17569,-2.01094 -18.13005,-5.02737 -27.23532,-7.39023 -8.95436,-2.33269 -17.92883,-4.71567 -27.02405,-6.35458 -3.93388,-0.71389 -4.20553,-1.49816 -2.81709,-4.94693 3.22959,-8.03372 4.36649,-16.43947 3.48112,-25.02621 H 51.802012 c -1.47897,5.26868 -2.19332,10.42674 -4.34638,14.88099 -3.16925,6.55568 -6.47934,13.46328 -11.40927,18.62136 -4.55766,4.76593 -11.40925,7.28967 -17.07363,11.0803 -1.56953,1.05576 -3.83328,3.40855 -3.53144,4.595 4.46711,17.58574 9.4071,35.05079 14.00502,52.60635 0.85518,3.24768 1.9116,4.36375 5.11102,2.755 8.97448,-4.50452 18.32122,-8.36554 26.89324,-13.52361 6.89184,-4.1526 12.85806,-9.82347 19.45812,-14.9916 z m -138.95351,18.56103 c 1.69026,-2.14166 2.636,-3.07675 3.28997,-4.19282 9.08515,-15.62505 18.1703,-31.24005 27.08441,-46.95558 0.58355,-1.02559 0.39239,-3.63982 -0.33202,-4.09227 -5.53358,-3.47895 -9.80955,-7.9734 -13.3611,-13.4834 -4.18541,-6.51547 -8.36074,-12.98064 -8.3205,-20.98421 0.0201,-3.96156 -1.15704,-5.23852 -5.16133,-5.19829 -17.91878,0.18098 -35.84762,0.0704 -53.776452,0.0905 -1.12685,0 -2.24361,0.25137 -4.32626,0.50273 1.71037,9.94412 3.3604,19.58661 5.00035,29.12855 -2.5857,0.44241 -5.23177,0.70383 -7.76716,1.34733 -16.02728,4.08222 -32.03444,8.25493 -48.04161,12.38743 -5.25189,1.35737 -5.64426,2.30254 -3.86346,7.76225 4.05461,12.4377 9.89004,23.91014 16.40961,35.30214 6.57995,11.50261 14.31691,21.84893 22.84869,31.8031 2.72656,3.18736 4.57779,2.69468 7.23392,-0.0704 6.33847,-6.62605 13.05928,-12.89015 19.39776,-19.50617 6.851582,-7.14889 13.411412,-14.57934 20.242872,-21.75842 0.50305,-0.52285 2.52534,-0.41225 3.18936,0.16087 6.63026,5.65076 13.11965,11.4624 20.24289,17.75666 z M -111.53954,662.8092 c -0.88538,-7.78235 -1.75064,-15.46417 -2.64607,-23.13592 -0.26159,-2.26232 -0.66403,-4.50452 -1.0061,-6.75677 2.5555,0.0603 5.11103,0.16087 7.66654,0.16087 16.429742,0.01 32.859472,0.0301 49.279142,0 9.15558,-0.0201 8.43119,1.22668 8.45131,-8.76772 0,-0.32175 -0.17105,-0.6435 -0.41252,-1.4881 -6.6906,-1.90035 -13.63275,-3.99173 -20.63525,-5.83173 -17.17426,-4.51459 -34.408882,-8.80796 -51.563022,-13.38285 -13.86416,-3.70014 -27.65788,-7.62149 -41.45162,-11.573 -4.24576,-1.21661 -7.6464,-0.81442 -8.34062,4.16266 -1.81099,13.03093 -3.34028,26.10206 -5.10097,40.10831 h -63.69667 c 1.05641,10.01449 1.77075,19.24475 3.08875,28.38449 1.2677,8.7979 3.24973,17.48518 4.73877,26.2529 0.58353,3.42867 2.2738,3.90124 5.30219,3.06669 21.40997,-5.86191 42.83,-11.67355 64.27015,-17.42484 17.37547,-4.65535 34.77106,-9.21014 52.06605,-13.77499 z M -1.7229183,521.65088 c -42.0955197,4.1325 -74.5022497,22.34161 -95.6103797,58.77995 -3.199432,-2.03105 -6.298242,-4.1325 -9.517782,-6.02279 -13.99495,-8.22476 -28.0201,-16.39925 -42.06535,-24.53353 -1.80092,-1.0457 -3.93388,-2.57402 -5.3223,0.63345 -4.70858,10.92949 -9.50772,21.82881 -14.00502,32.84879 -0.9055,2.22209 -1.11679,4.63523 2.71649,5.61053 20.28313,5.16814 40.48575,10.6178 60.70852,16.02724 17.898642,4.78606 35.757062,9.69276 53.685902,14.3481 1.15702,0.30165 3.69241,-0.76417 3.98418,-1.6892 1.80092,-5.81162 5.10097,-10.70828 9.1757,-14.98154 4.22565,-4.43414 8.39094,-9.44139 13.63276,-12.23661 6.80129,-3.61969 14.6388597,-5.29883 22.6273597,-8.02367 V 521.65088 Z M 112.67151,633.07738 c -1.74055,-32.25556 -13.934578,-59.11174 -36.934208,-80.3976 -20.55477,-19.03359 -45.23458,-29.5408 -74.2306103,-30.58648 0,20.14967 -0.0503,39.52513 0.15092,58.90059 0.0101,0.99542 2.18327,2.71478 3.47107,2.84549 12.1236103,1.21662 22.4663803,7.07853 30.5253103,15.17259 8.06898,8.11415 13.9849,18.44036 15.11173,30.6267 0.11067,1.23673 1.98202,3.28789 3.04851,3.29795 19.24684,0.20109 38.49367,0.15082 58.847218,0.15082 z M 1.4060817,585.01578 c -18.5023197,1.58866 -32.1551997,9.66259 -42.0351697,23.89003 -5.32231,7.67176 -9.21595,16.94222 -8.47142,25.65967 2.36435,28.05269 22.75815,49.00675 49.23888965,48.87603 C 28.158492,683.3108 49.437662,660.4564 49.105642,634.36438 48.753502,606.79433 26.458162,587.67023 1.4060817,585.01578 Z M -55.942038,734.71056 c -6.98239,-5.56026 -14.01508,-11.06019 -20.90692,-16.72102 -1.85124,-1.51824 -2.80703,-1.95061 -4.83937,0.12067 -12.94861,13.12143 -26.158802,25.99148 -39.087282,39.133 -0.78476,0.80438 -0.58354,3.90124 0.30183,4.7961 3.24973,3.29796 6.78117,6.42498 10.59432,9.04926 7.73696,5.31896 15.876372,10.05472 23.583152,15.41389 10.9867,7.64161 23.22096,12.41759 35.84761,16.38922 2.39453,0.7541 4.41681,0.32174 4.87962,-3.13708 0.50306,-3.73032 1.9418,-7.32991 2.87747,-11.00992 3.89364,-15.2832 7.57599,-30.62671 11.65072,-45.86968 5.07079,-18.95315 10.33273,-37.8661 15.77577,-56.71872 1.38844,-4.82627 -2.52533,-4.44417 -4.68845,-5.94234 -2.58571,-1.78974 -4.28603,-0.82449 -5.69457,1.62888 -5.8153,10.16532 -11.69097,20.29044 -17.5264,30.45576 -4.21559,7.36006 -8.39093,14.74023 -12.7675,22.42204 z"
     id="path1"
     style="stroke-width:1.0058" />
</svg>
