<?xml version="1.0" encoding="UTF-8" standalone="no"?>
<svg
   class="sector-svg"
   version="1.1"
   id="Sectors"
   x="0px"
   y="0px"
   viewBox="0 0 4000 4000"
   style=""
   xml:space="preserve"
   xmlns="http://www.w3.org/2000/svg"
   xmlns:svg="http://www.w3.org/2000/svg"><defs
   id="defs54" />
   <style
   id="style5249">
      path {
         stroke-width: 2;
         fill: #0000;
         stroke: #c0c0c0;
      }
      circle{
         stroke-width: 5;
         fill: #0000;
         stroke: #c0c0c0;
      }
   </style>
    <path
   d="M2201.34,2000.5c0-107.5-81.34-201.84-201.84-201.84v-197.88c220.25,0,399.72,177.55,399.72,399.71   H2201.34z"
   id="atlus">
    </path>
    <path
   d="M2581.15,2156.39c-30.15,114.08-90.16,204.54-155.69,270.07l-143.33-143.33   c-53.58,53.67-117.38,87.11-179.1,103.52l-52.12-194.49c141.19-35.8,150.27-172.83,150.44-191.66h197.88   c0,35.77-4.68,70.5-13.57,103.48L2581.15,2156.39z"
   id="barnard">
    </path>
    <path
   d="M2425.46,2426.46c-157.94,158.11-381.62,209.01-581.57,154.68l104.49-389.94   c34.05,9.36,70.98,9.03,102.51,0.97l52.12,194.49c77.03-20.49,137.45-61.8,179.1-103.52L2425.46,2426.46z"
   id="cancri">
    </path>
    <path
   d="M1948.39,2191.19l-52.37,195.46l-52.12,194.49h-0.04c-117.36-31.91-206.91-94.68-268.29-156.74   l141.31-141.27c24.59,24.63,52.41,46.03,82.73,63.59l101.34-175.51C1915.68,2179.81,1931.59,2186.59,1948.39,2191.19z"
   id="gothmar">
    </path>
    <path
   d="M1900.94,2171.21l-101.34,175.51c-30.32-17.56-58.14-38.96-82.73-63.59l-141.31,141.27   c-64.63-65.2-124.13-155.49-153.95-269.14l191.74-51.36c-8.88-32.99-13.57-67.63-13.57-103.4h201.92   C1802.68,2108.04,1881.26,2159.74,1900.94,2171.21z"
   id="cantolus">
    </path>
    <path
   d="M1801.7,2000.5h-201.92c0,35.77,4.68,70.41,13.57,103.4l-382.47,102.43   c-17.48-65.65-26.77-134.65-26.77-205.83h197.84c0.16-53.46,7.35-105.3,20.67-154.6l385.18,103.24c-4,15.79-6.14,32.3-6.14,49.34   C1801.66,1999.17,1801.66,1999.81,1801.7,2000.5z"
   id="idun">
    </path>
    <path
   d="M1999.5,1600.79v197.88c-92.36,0.83-169.97,64.78-191.7,150.48l-385.18-103.24   c13.77-50.95,34.08-99.24,59.96-143.86l170.71,98.56C1736.01,1657.78,1880.02,1600.79,1999.5,1600.79z"
   id="kelvin">
    </path>
    <path
   d="M2499.22,1134.98l-299.83,519.31c-49.62-28.73-117.63-53.5-199.9-53.5v-597.51   c1.33-0.04,2.71-0.04,4.04-0.04C2162.91,1003.23,2335.16,1040.82,2499.22,1134.98z"
   id="iptus">
    </path>
    <path
   d="M2802.97,2000.5h-403.75c0-38.08-6.73-234.38-199.82-346.22l99.57-172.44   c84.31,48.24,163.75,121.35,220.49,218.51L2695,1599.01C2752.91,1698.48,2802.97,1834.99,2802.97,2000.5z"
   id="celeste">
    </path>
    <path
   d="M3000.81,2000.5c0,89.63-11.83,176.56-34.04,259.21l-191.14-51.24   c-18.41,68.6-45.74,133.56-80.67,193.56l-173.77-100.33c26.04-45.06,46.35-93.83,59.96-145.31l-195.5-52.41   c8.88-32.99,13.57-67.71,13.57-103.48H3000.81z"
   id="korpus">
    </path>
    <path
   d="M3038.15,2600.15c-112.92,195.18-270.47,341.54-438.92,438.96l-99.97-173.13   c76.03-43.6,145.71-96.94,207.41-158.31l-281.21-281.21c37.1-37.1,69.36-79.01,95.73-124.76L3038.15,2600.15z"
   id="gallux">
    </path>
    <path
   d="M2706.67,2707.67c-61.69,61.37-131.38,114.71-207.41,158.31l-98.92-171.31   c-60.04,34.4-125,61.21-193.52,79.18l-51.4-191.7c118.16-31.33,208.24-93.83,270.03-155.69L2706.67,2707.67z"
   id="morgon">
    </path>
    <path
   d="M2499.26,2865.98c-341.68,196.38-665.4,122.09-757.72,96.98l102.31-381.83h0.04   c101.39,27.55,209.58,28.01,311.54,1.01l51.4,191.7c68.52-17.97,133.48-44.78,193.52-79.18L2499.26,2865.98z"
   id="rictus">
    </path>
    <path
   d="M1843.85,2581.14l-102.31,381.83c-84.95-23.05-165.42-57.09-239.75-100.45l98.92-171.35   c-60.32-35.25-115.59-78.17-164.49-127.42l139.33-139.34C1656.65,2506.38,1752.27,2556.24,1843.85,2581.14z"
   id="saleria">
    </path>
    <path
   d="M1575.56,2424.4l-139.33,139.34c-48.89-49.22-91.37-104.73-126.17-165.26l-171.31,98.92   c-42.88-74.41-76.43-154.92-99-239.87l381.87-102.27C1451.16,2267.88,1510.2,2358.47,1575.56,2424.4z"
   id="meridian">
    </path>
    <path
   d="M1230.88,2206.33l-581.12,155.65c-30.81-115.27-47.24-236.48-47.24-361.48h601.59   C1204.11,2071.68,1213.39,2140.68,1230.88,2206.33z"
   id="theseus">
    </path>
    <path
   d="M1482.58,1702.05c-42.94,74.02-80.26,175.48-80.63,298.45h-395.68   c0-88.91,11.63-175.15,33.51-257.19l191.14,51.24c18.05-68.03,44.86-132.47,79.18-192.11L1482.58,1702.05z"
   id="sagan">
    </path>
    <path
   d="M1701.05,1483.62l98.56,170.71c-56.65,32.74-109.02,81.89-146.32,146.28l-343.19-198.16   c104.06-180.96,277.01-317.29,482.65-373.27l52.12,194.45C1793.91,1437.39,1745.66,1457.7,1701.05,1483.62z"
   id="marspira">
    </path>
    <path
   d="M1999.5,1003.27v597.51c-81.65,0-149.74,24.46-199.9,53.54l-98.56-170.71   c44.61-25.92,92.86-46.23,143.82-60l-52.12-194.45c-68.07,18.53-132.55,45.87-192.07,80.67l-98.92-171.31   C1662.35,1044.75,1835.21,1003.87,1999.5,1003.27z"
   id="talus">
    </path>
    <path
   d="M3198.65,2000.5h-197.84c0-151.47-37.32-451.87-294.09-707.13l140.75-140.75   C3156.42,1461.57,3198.65,1823.13,3198.65,2000.5z"
   id="umalt">
    </path>
    <path
   d="M3544.3,1586.82l-386.19,103.4c-27.37-102.51-67.99-199.62-119.91-289.33l346.26-199.86   C3453.66,1320.66,3507.8,1450.14,3544.3,1586.82z"
   id="draco">
    </path>
    <path
   d="M3000.81,2000.5h-197.84c0-164.97-49.48-301.02-107.96-401.49l-175.55,101.34   c-56.84-97.32-136.23-170.3-220.49-218.51l200.26-346.86C2580.93,1181.88,3000.81,1441.88,3000.81,2000.5z"
   id="orion">
    </path>
    <path
   d="M3396.48,2000.5c0,125.08-16.43,246.33-47.32,361.68l-382.39-102.47   c22.21-82.65,34.04-169.58,34.04-259.21H3396.48z"
   id="borgus">
    </path>
    <path
   d="M3349.16,2362.18c-31.86,119.39-79.18,232.44-139.66,336.93l-514.54-297.08   c34.92-60,62.26-124.96,80.67-193.56L3349.16,2362.18z"
   id="ursa">
    </path>
    <path
   d="M3209.51,2699.11c-266.12,459.88-683.76,607.12-848.2,651.01l-51.24-191.1   c103.75-27.73,487.87-143.65,728.09-558.87L3209.51,2699.11z"
   id="ferris">
    </path>
    <path
   d="M2310.07,3159.03l51.24,191.1c-115.39,30.89-236.68,47.36-361.8,47.36v-399.76   c1.33,0.04,2.71,0.04,4.04,0.04c157.44,0,330.81-37,495.73-131.78l99.97,173.13C2509.56,3091.04,2412.5,3131.65,2310.07,3159.03z"
   id="hanzo">
    </path>
    <path
   d="M1999.5,2997.73v201.92c-107.4,0-211.49-14.13-310.53-40.62l-103.48,386.19   c-136.59-36.5-265.99-90.64-385.58-159.85l301.89-522.86C1662.16,2956.06,1834.76,2997.13,1999.5,2997.73z"
   id="akira">
    </path>
    <path
   d="M1600.71,2691.16l-299.83,519.31c-106.03-61.29-203.21-136.15-289.25-222.19l424.59-424.55   C1485.12,2612.99,1540.39,2655.91,1600.71,2691.16z"
   id="guang">
    </path>
    <path
   d="M1436.22,2563.73l-284.69,284.65c-162.85-162.85-261.65-354.11-310.65-537.6l198.85-53.26   c22.57,84.95,56.12,165.46,99,239.87l171.31-98.92C1344.86,2459,1387.33,2514.52,1436.22,2563.73z"
   id="tarragon">
    </path>
    <path
   d="M1151.54,2848.38l-139.9,139.9c-190.3-190.39-304.84-412.71-361.88-626.3l191.14-51.2   C903.56,2545.48,1027.84,2724.68,1151.54,2848.38z"
   id="alstrad">
    </path>
    <path
   d="M800.35,2000.5H602.52c0,125,16.43,246.21,47.24,361.48l-195.05,52.2   c-67.43-252.13-76.69-540.76,0.08-827.65l386.19,103.48C814.45,1789.05,800.35,1893.1,800.35,2000.5z"
   id="xzar">
    </path>
    <path
   d="M1310.09,1602.44c-34.32,59.63-61.13,124.07-79.18,192.11l-191.14-51.24   c-21.88,82.04-33.51,168.28-33.51,257.19H800.35c0-245.46,73.91-450.13,160.49-599.65L1310.09,1602.44z"
   id="nanos">
    </path>
    <path
   d="M1600.67,1309.84c-129.23,75.57-226.18,180.6-290.58,292.6l-171.35-98.88   c43.48-75.54,96.58-144.83,157.62-206.2l-144.79-144.79c73.81-73.81,157.22-138.08,248.19-190.69L1600.67,1309.84z"
   id="hydra">
    </path>
    <path
   d="M1741.5,1038.03c-84.95,23.05-165.42,57.09-239.75,100.49l-101.99-176.64   c-90.97,52.61-174.38,116.89-248.19,190.69l-139.9-139.9c189.95-189.95,412.61-304.84,626.02-361.8L1741.5,1038.03z"
   id="lacaille">
    </path>
    <path
   d="M2361.22,650.84l-51.2,191.14c-99.04-26.49-203.13-40.62-310.53-40.62v201.92   c-89.23,0.32-175.75,12.39-258,34.76l-156.09-582.21c132.07-35.37,270.88-54.18,414.09-54.18v201.88   C2124.58,603.52,2245.87,619.95,2361.22,650.84z"
   id="tanis">
    </path>
    <path
   d="M2799.09,615.63l-299.87,519.35c-136.56-78.37-304.39-131.74-495.69-131.74   c-1.33,0-2.71,0-4.04,0.04V801.35c107.4,0,211.49,14.13,310.53,40.62l51.2-191.14c-115.35-30.89-236.64-47.32-361.72-47.32V401.64   C2328.26,401.64,2599.75,500.28,2799.09,615.63z"
   id="arturion">
    </path>
    <path
   d="M3130.13,870.03l-423.42,423.33c-61.73-61.37-131.46-114.75-207.49-158.39l299.87-519.35   C2920.42,685.84,3031.69,771.56,3130.13,870.03z"
   id="falstaff">
    </path>
    <path
   d="M3384.45,1201.03l-346.26,199.86c-52.65-91.01-116.89-174.42-190.73-248.27l282.67-282.59   C3228.56,968.47,3314.24,1079.7,3384.45,1201.03z"
   id="mirin">
    </path>
    <path
   d="M3800.24,2000.5c0,161.22-21.2,317.51-60.97,466.21l-390.11-104.53   c30.89-115.35,47.32-236.6,47.32-361.68h-197.84c0-107.32-14.09-211.32-40.54-310.28l386.19-103.4   c35.29,131.95,54.06,270.64,54.06,413.68H3800.24z"
   id="jinxi">
    </path>
    <path
   d="M3922.61,2515.85c-104.15,389.94-310.65,687.21-515.63,892.13l-276.93-276.93   c98.48-98.44,184.15-209.67,254.32-331l-174.86-100.94c60.48-104.49,107.8-217.54,139.66-336.93L3922.61,2515.85z"
   id="farsight">
    </path>
    <path
   d="M3406.98,3407.98c-122.54,122.54-260.95,229.17-411.95,316.54l-296.84-514.06   c197.61-114.35,380.5-285.3,511.31-511.35l174.86,100.94c-70.17,121.33-155.85,232.56-254.32,331L3406.98,3407.98z"
   id="leo">
    </path>
    <path
   d="M2995.03,3724.52C2747.51,3867.82,2409.68,3991,1999.5,3991v-189.76   c161.3,0,317.63-21.2,466.37-61.01l-52.29-195.05c-132.07,35.37-270.88,54.18-414.09,54.18v-201.88   c286.7,0,524.46-86.17,698.69-187.02L2995.03,3724.52z"
   id="rigel">
    </path>
    <path
   d="M2465.87,3740.23c-148.74,39.81-305.08,61.01-466.37,61.01V3991   c-178.26,0-351.06-23.46-515.43-67.39l204.9-764.59c99.04,26.49,203.13,40.62,310.53,40.62v399.72   c143.21,0,282.02-18.82,414.09-54.18L2465.87,3740.23z"
   id="omega">
    </path>
    <path
   d="M1585.49,3545.22l-101.42,378.4c-377.64-100.96-676.42-299.93-892.13-515.71l419.7-419.62   c86.04,86.04,183.22,160.9,289.25,222.19l-100.98,174.91C1319.5,3454.57,1448.9,3508.72,1585.49,3545.22z"
   id="xitauri">
    </path>
    <path
   d="M1011.64,2988.28l-419.7,419.62c-270.27-270.27-434.23-587.45-515.63-892.37l183.34-49.1   c41.1,153.91,102.07,299.75,180.07,434.48l174.82-100.94c-69.2-119.63-123.35-249.12-159.85-385.79l195.05-52.2   C722.87,2635.76,867.79,2844.37,1011.64,2988.28z"
   id="quintus">
    </path>
    <path
   d="M614.55,2799.97l-174.82,100.94c-78.01-134.73-138.97-280.57-180.07-434.48l-183.34,49.1   C32.42,2351.28,9,2178.6,9,2000.5h391.64C400.64,2328.88,499,2600.23,614.55,2799.97z"
   id="severin">
    </path>
    <path
   d="M789.49,1301.89c-60.48,104.49-107.8,217.54-139.66,336.93l-195.05-52.29   c-35.33,132.03-54.14,270.8-54.14,413.97H9c0-178.22,23.42-350.98,67.39-515.35l183.34,49.14   c41.1-153.87,102.11-299.62,180.03-434.32L789.49,1301.89z"
   id="trigon">
    </path>
    <path
   d="M1296.36,1297.36c-61.05,61.37-114.14,130.65-157.62,206.2l-177.89-102.71   c-51.92,89.67-92.54,186.74-119.87,289.17l-191.14-51.2c72.99-273.56,218.07-482.3,361.84-626.14L1296.36,1297.36z"
   id="andromeda">
    </path>
    <path
   d="M1011.68,1012.68c-86,86.04-160.86,183.22-222.19,289.21l-349.73-201.92   c-77.92,134.69-138.93,280.45-180.03,434.32l-183.34-49.14c104.15-389.94,310.65-687.21,515.63-892.13L1011.68,1012.68z"
   id="ymir">
    </path>
    <path
   d="M1637.7,650.88c-273.7,73.06-482.37,218.16-626.02,361.8L592.02,593.02   c122.54-122.54,260.95-229.17,411.95-316.54l94.92,164.37c134.69-77.96,280.41-138.97,434.24-180.07L1637.7,650.88z"
   id="valdis">
    </path>
    <path
   d="M2465.79,260.77l-52.29,195.01c-252.96-67.69-541.69-76.66-828.1,0.04l-52.29-195.05   c-153.83,41.1-299.54,102.11-434.24,180.07l-94.92-164.37C1251.49,133.18,1589.32,10,1999.5,10v189.76   C2160.76,199.76,2317.05,220.96,2465.79,260.77z"
   id="gellert">
    </path>
    <path
   d="M2994.95,276.44l-195.86,339.19c-119.59-69.2-248.99-123.35-385.58-159.85l52.29-195.01   c-148.74-39.81-305.03-61.01-466.29-61.01V10C2408.71,10,2746.51,132.68,2994.95,276.44z"
   id="hawking">
    </path>
    <path
   d="M3739.35,1534.57l-195.05,52.25c-38.5-144.17-194.41-652.44-745.21-971.19l195.86-339.19   c322.88,186.77,566.69,448.59,728.69,728.77l-164.37,94.88C3637.28,1234.82,3698.25,1380.66,3739.35,1534.57z"
   id="lestrade">
    </path>
    <path
   d="M3922.61,2515.85l-183.34-49.14c39.77-148.7,60.97-304.99,60.97-466.21h-201.88   c0-143.05-18.77-281.74-54.06-413.68l195.05-52.25c-41.1-153.91-102.07-299.75-180.07-434.48l164.37-94.88   C4002.67,1487.32,4050.73,2036.92,3922.61,2515.85z"
   id="sten">
    </path>
    <circle
   id="sol"
   name="sol-sector"
   class="sol-system sector-path"
   cx="2000"
   cy="2000"
   r="200">
    </circle>
    </svg>
